#VRML V2.0 utf8

Shape {
  appearance Appearance {
    material Material {
      diffuseColor 0.6667 0.6667 0.6667
      specularColor 0.4667 0.4667 0.4667
      ambientIntensity 0.2
      transparency 0.0000
      shininess 0.5
    }
  }
  geometry IndexedFaceSet {
    ccw TRUE
    solid FALSE
    coord DEF co Coordinate {
      point [
        -0.008162 -0.543307 -0.007874,
        -0.543307 -0.543307 -0.007874,
        -0.543307 -0.027981 -0.007874,
        -0.052333 -0.027741 -0.007874,
        -0.046572 -0.027741 -0.007874,
        -0.008162 -0.027981 -0.007874,
        -0.082101 -0.027741 -0.007874,
        -0.076339 -0.027741 -0.007874,
        -0.041725 -0.016950 -0.007874,
        -0.039467 -0.020472 -0.007874,
        -0.036227 -0.023574 -0.007874,
        -0.032116 -0.025963 -0.007874,
        -0.072356 -0.016698 -0.007874,
        -0.056092 -0.016698 -0.007874,
        -0.012003 0.011630 -0.007874,
        -0.008162 0.543307 -0.007874,
        -0.023113 0.011630 -0.007874,
        -0.028801 0.011022 -0.007874,
        -0.033407 0.009404 -0.007874,
        -0.037693 0.006532 -0.007874,
        -0.061456 0.011630 -0.007874,
        -0.037734 0.006496 -0.007874,
        -0.040518 0.003409 -0.007874,
        -0.042348 0.000023 -0.007874,
        -0.027580 -0.027315 -0.007874,
        -0.022708 -0.027741 -0.007874,
        -0.012003 -0.027741 -0.007874,
        -0.043405 -0.003856 -0.007874,
        -0.043691 -0.007560 -0.007874,
        -0.043139 -0.012829 -0.007874,
        -0.004321 -0.023419 -0.007874,
        -0.004321 -0.027741 -0.007874,
        0.016804 -0.027741 -0.007874,
        -0.003361 0.007308 -0.007874,
        0.011523 0.007308 -0.007874,
        0.011523 -0.005655 -0.007874,
        0.024486 -0.025700 -0.007874,
        0.024486 -0.021379 -0.007874,
        0.016804 0.011630 -0.007874,
        0.028683 -0.027423 -0.007874,
        0.032661 -0.027981 -0.007874,
        0.011523 -0.009976 -0.007874,
        0.011523 -0.023419 -0.007874,
        -0.002401 -0.009976 -0.007874,
        -0.002401 -0.005655 -0.007874,
        0.043987 -0.026404 -0.007874,
        0.057135 -0.027741 -0.007874,
        0.040171 -0.027718 -0.007874,
        0.037634 -0.027981 -0.007874,
        0.543307 -0.027981 -0.007874,
        0.077300 -0.027741 -0.007874,
        0.543307 0.543307 -0.007874,
        0.077300 0.011630 -0.007874,
        0.072019 0.011630 -0.007874,
        -0.003361 0.011630 -0.007874,
        0.037583 0.007353 -0.007874,
        0.040530 0.006290 -0.007874,
        0.025192 -0.021770 -0.007874,
        0.043255 0.004467 -0.007874,
        0.045632 0.001842 -0.007874,
        0.048493 -0.008476 -0.007874,
        0.048094 -0.012738 -0.007874,
        0.047024 -0.016124 -0.007874,
        0.038263 -0.023488 -0.007874,
        0.034591 -0.023900 -0.007874,
        0.041132 -0.022431 -0.007874,
        0.043548 -0.020803 -0.007874,
        0.045396 -0.018854 -0.007874,
        0.029365 -0.023320 -0.007874,
        0.047255 -0.001198 -0.007874,
        0.048305 -0.005412 -0.007874,
        0.045834 0.008359 -0.007874,
        0.049389 0.004941 -0.007874,
        0.051696 0.001260 -0.007874,
        0.047154 -0.024382 -0.007874,
        0.050111 -0.021269 -0.007874,
        0.057135 -0.023419 -0.007874,
        0.052208 -0.017525 -0.007874,
        0.072019 -0.023419 -0.007874,
        0.053393 -0.013358 -0.007874,
        0.053774 -0.008798 -0.007874,
        0.053207 -0.003201 -0.007874,
        0.042094 0.010512 -0.007874,
        0.037706 0.011787 -0.007874,
        0.033751 0.012110 -0.007874,
        0.029038 0.011784 -0.007874,
        0.024486 0.010549 -0.007874,
        0.024486 0.005268 -0.007874,
        0.028921 0.007167 -0.007874,
        0.033706 0.007789 -0.007874,
        0.034243 -0.028202 -0.007874,
        0.543307 -0.543307 -0.007874,
        0.035319 -0.028221 -0.007874,
        -0.464567 0.543307 -0.007874,
        -0.066737 0.011630 -0.007874,
        -0.543307 0.464567 -0.007874,
      ]
    }
    coordIndex [
      0, 1, 2, -1,
      3, 4, 5, -1,
      6, 7, 5, -1,
      8, 9, 4, -1,
      4, 9, 10, -1,
      4, 10, 11, -1,
      5, 7, 3, -1,
      3, 7, 12, -1,
      3, 12, 13, -1,
      5, 14, 15, -1,
      15, 14, 16, -1,
      15, 16, 17, -1,
      18, 19, 20, -1,
      19, 21, 20, -1,
      20, 21, 22, -1,
      20, 22, 23, -1,
      11, 24, 4, -1,
      4, 24, 25, -1,
      4, 25, 5, -1,
      5, 25, 26, -1,
      5, 26, 14, -1,
      23, 27, 20, -1,
      20, 27, 28, -1,
      20, 28, 4, -1,
      4, 28, 29, -1,
      4, 29, 8, -1,
      15, 30, 5, -1,
      5, 30, 31, -1,
      5, 31, 32, -1,
      33, 34, 35, -1,
      36, 32, 37, -1,
      37, 32, 38, -1,
      36, 39, 32, -1,
      32, 39, 40, -1,
      32, 40, 5, -1,
      41, 42, 43, -1,
      43, 42, 30, -1,
      43, 30, 44, -1,
      45, 46, 47, -1,
      47, 46, 48, -1,
      49, 50, 51, -1,
      51, 50, 52, -1,
      51, 52, 15, -1,
      15, 52, 53, -1,
      35, 44, 33, -1,
      33, 44, 30, -1,
      33, 30, 54, -1,
      54, 30, 15, -1,
      54, 15, 38, -1,
      55, 56, 57, -1,
      57, 56, 58, -1,
      57, 58, 59, -1,
      60, 61, 57, -1,
      57, 61, 62, -1,
      63, 64, 65, -1,
      65, 64, 66, -1,
      62, 67, 57, -1,
      57, 67, 66, -1,
      57, 66, 68, -1,
      68, 66, 64, -1,
      59, 69, 57, -1,
      57, 69, 70, -1,
      57, 70, 60, -1,
      71, 15, 72, -1,
      72, 15, 53, -1,
      72, 53, 73, -1,
      45, 74, 46, -1,
      46, 74, 75, -1,
      46, 75, 76, -1,
      76, 75, 77, -1,
      76, 77, 78, -1,
      77, 79, 78, -1,
      78, 79, 80, -1,
      78, 80, 53, -1,
      53, 80, 81, -1,
      53, 81, 73, -1,
      71, 82, 15, -1,
      15, 82, 83, -1,
      15, 83, 84, -1,
      84, 85, 15, -1,
      15, 85, 86, -1,
      15, 86, 38, -1,
      38, 86, 87, -1,
      38, 87, 37, -1,
      37, 87, 88, -1,
      37, 88, 57, -1,
      57, 88, 89, -1,
      57, 89, 55, -1,
      0, 90, 91, -1,
      91, 90, 92, -1,
      91, 92, 49, -1,
      49, 92, 48, -1,
      49, 48, 50, -1,
      50, 48, 46, -1,
      17, 18, 15, -1,
      15, 18, 20, -1,
      15, 20, 93, -1,
      93, 20, 94, -1,
      93, 94, 95, -1,
      95, 94, 6, -1,
      95, 6, 2, -1,
      2, 6, 5, -1,
      2, 5, 0, -1,
      0, 5, 40, -1,
      0, 40, 90, -1,
    ]
  }
}

Shape {
  appearance Appearance {
    material Material {
      diffuseColor 0.2078 0.2078 0.2078
      specularColor 0.0157 0.0157 0.0157
      ambientIntensity 0.2
      transparency 0.0000
      shininess 0.5
    }
  }
  geometry IndexedFaceSet {
    ccw TRUE
    solid FALSE
    coord DEF co Coordinate {
      point [
        -0.464567 0.543307 0.000000,
        -0.543307 0.464567 0.000000,
        -0.787402 0.452756 0.000000,
        -0.452756 -0.673622 0.000000,
        -0.452756 -0.787402 0.000000,
        -0.787402 -0.787402 0.000000,
        -0.673622 0.452756 0.000000,
        0.673622 -0.452756 0.000000,
        0.787402 -0.452756 0.000000,
        0.787402 -0.787402 0.000000,
        -0.642999 0.327645 0.000000,
        -0.636117 0.336614 0.000000,
        -0.631791 0.164752 0.000000,
        0.642999 -0.327645 0.000000,
        0.636117 -0.336614 0.000000,
        0.631791 -0.164752 0.000000,
        0.452756 0.673622 0.000000,
        0.452756 0.787402 0.000000,
        0.787402 0.787402 0.000000,
        -0.440072 -0.642999 0.000000,
        -0.446954 -0.651969 0.000000,
        -0.543307 -0.543307 0.000000,
        -0.451280 -0.662413 0.000000,
        0.420657 0.631791 0.000000,
        0.431102 0.636117 0.000000,
        0.543307 0.543307 0.000000,
        -0.636117 -0.336614 0.000000,
        -0.651969 -0.191048 0.000000,
        -0.631791 -0.347059 0.000000,
        -0.642999 -0.184166 0.000000,
        -0.636117 -0.175197 0.000000,
        -0.631791 -0.164752 0.000000,
        -0.630315 0.358268 0.000000,
        -0.630315 0.409449 0.000000,
        -0.631791 0.420657 0.000000,
        -0.636117 0.431102 0.000000,
        -0.642999 0.440072 0.000000,
        -0.651969 0.446954 0.000000,
        -0.662413 0.451280 0.000000,
        0.452756 -0.787402 0.000000,
        0.452756 -0.673622 0.000000,
        0.451280 -0.662413 0.000000,
        0.543307 -0.543307 0.000000,
        0.446954 -0.651969 0.000000,
        0.440072 -0.642999 0.000000,
        0.431102 -0.636117 0.000000,
        0.420657 -0.631791 0.000000,
        -0.409449 -0.630315 0.000000,
        -0.420657 -0.631791 0.000000,
        -0.431102 -0.636117 0.000000,
        0.636117 0.336614 0.000000,
        0.651969 0.191048 0.000000,
        0.631791 0.347059 0.000000,
        0.642999 0.184166 0.000000,
        0.636117 0.175197 0.000000,
        0.631791 0.164752 0.000000,
        0.630315 -0.358268 0.000000,
        0.630315 -0.409449 0.000000,
        0.631791 -0.420657 0.000000,
        0.636117 -0.431102 0.000000,
        0.327645 0.642999 0.000000,
        0.336614 0.636117 0.000000,
        0.195375 0.662413 0.000000,
        -0.662413 0.060531 0.000000,
        -0.651969 0.064857 0.000000,
        -0.651969 -0.064857 0.000000,
        0.662413 -0.060531 0.000000,
        0.651969 -0.064857 0.000000,
        0.651969 0.064857 0.000000,
        0.642999 -0.440072 0.000000,
        0.651969 -0.446954 0.000000,
        0.662413 -0.451280 0.000000,
        -0.175197 0.636117 0.000000,
        -0.164752 0.631791 0.000000,
        -0.336614 0.636117 0.000000,
        -0.060531 0.662413 0.000000,
        0.071739 0.642999 0.000000,
        -0.064857 0.651969 0.000000,
        -0.071739 0.642999 0.000000,
        0.191048 0.651969 0.000000,
        0.409449 0.630315 0.000000,
        -0.787402 -0.452756 0.000000,
        -0.673622 -0.452756 0.000000,
        -0.662413 -0.451280 0.000000,
        -0.651969 -0.446954 0.000000,
        -0.642999 -0.440072 0.000000,
        -0.636117 -0.431102 0.000000,
        -0.631791 -0.420657 0.000000,
        -0.630315 -0.409449 0.000000,
        -0.636117 -0.080709 0.000000,
        -0.642999 -0.071739 0.000000,
        -0.636117 0.080709 0.000000,
        -0.642999 0.071739 0.000000,
        -0.631791 0.091154 0.000000,
        -0.630315 0.102362 0.000000,
        -0.630315 0.153543 0.000000,
        -0.631791 0.347059 0.000000,
        -0.651969 0.191048 0.000000,
        -0.662413 0.195375 0.000000,
        -0.651969 0.320763 0.000000,
        0.191048 -0.651969 0.000000,
        0.184166 -0.642999 0.000000,
        0.336614 -0.636117 0.000000,
        0.175197 -0.636117 0.000000,
        0.347059 -0.631791 0.000000,
        0.787402 0.452756 0.000000,
        0.673622 0.452756 0.000000,
        0.662413 0.451280 0.000000,
        0.651969 0.446954 0.000000,
        0.642999 0.440072 0.000000,
        0.636117 0.431102 0.000000,
        0.631791 0.420657 0.000000,
        0.630315 0.409449 0.000000,
        0.636117 0.080709 0.000000,
        0.642999 0.071739 0.000000,
        0.636117 -0.080709 0.000000,
        0.642999 -0.071739 0.000000,
        0.631791 -0.091154 0.000000,
        0.630315 -0.102362 0.000000,
        0.630315 -0.153543 0.000000,
        0.631791 -0.347059 0.000000,
        0.651969 -0.191048 0.000000,
        0.662413 -0.195375 0.000000,
        0.651969 -0.320763 0.000000,
        -0.320763 0.651969 0.000000,
        -0.316436 0.662413 0.000000,
        -0.184166 0.642999 0.000000,
        0.153543 0.630315 0.000000,
        0.164752 0.631791 0.000000,
        0.175197 0.636117 0.000000,
        0.184166 0.642999 0.000000,
        0.440072 0.642999 0.000000,
        0.446954 0.651969 0.000000,
        0.451280 0.662413 0.000000,
        -0.642999 -0.327645 0.000000,
        -0.651969 -0.320763 0.000000,
        -0.662413 -0.316436 0.000000,
        -0.630315 -0.153543 0.000000,
        -0.630315 -0.102362 0.000000,
        -0.631791 -0.091154 0.000000,
        -0.642999 0.184166 0.000000,
        0.409449 -0.630315 0.000000,
        0.358268 -0.630315 0.000000,
        0.195375 -0.662413 0.000000,
        0.327645 -0.642999 0.000000,
        0.320763 -0.651969 0.000000,
        0.314961 -0.673622 0.000000,
        0.314961 -0.787402 0.000000,
        0.196850 -0.787402 0.000000,
        -0.060531 -0.662413 0.000000,
        -0.064857 -0.651969 0.000000,
        0.064857 -0.651969 0.000000,
        0.071739 -0.642999 0.000000,
        -0.071739 -0.642999 0.000000,
        -0.080709 -0.636117 0.000000,
        -0.091154 -0.631791 0.000000,
        0.642999 0.327645 0.000000,
        0.651969 0.320763 0.000000,
        0.662413 0.316436 0.000000,
        0.630315 0.153543 0.000000,
        0.630315 0.102362 0.000000,
        0.631791 0.091154 0.000000,
        0.642999 -0.184166 0.000000,
        -0.787402 0.787402 0.000000,
        -0.452756 0.787402 0.000000,
        -0.452756 0.673622 0.000000,
        -0.451280 0.662413 0.000000,
        -0.446954 0.651969 0.000000,
        -0.440072 0.642999 0.000000,
        -0.431102 0.636117 0.000000,
        -0.420657 0.631791 0.000000,
        -0.409449 0.630315 0.000000,
        -0.327645 0.642999 0.000000,
        -0.153543 0.630315 0.000000,
        -0.102362 0.630315 0.000000,
        -0.091154 0.631791 0.000000,
        -0.080709 0.636117 0.000000,
        -0.059055 0.673622 0.000000,
        -0.059055 0.787402 0.000000,
        0.059055 0.787402 0.000000,
        -0.630315 -0.358268 0.000000,
        -0.636117 0.175197 0.000000,
        0.316436 -0.662413 0.000000,
        0.196850 -0.673622 0.000000,
        -0.196850 -0.673622 0.000000,
        -0.196850 -0.787402 0.000000,
        -0.314961 -0.787402 0.000000,
        -0.327645 -0.642999 0.000000,
        -0.336614 -0.636117 0.000000,
        -0.347059 -0.631791 0.000000,
        -0.358268 -0.630315 0.000000,
        0.630315 0.358268 0.000000,
        0.636117 -0.175197 0.000000,
        0.059055 0.673622 0.000000,
        0.060531 0.662413 0.000000,
        0.064857 0.651969 0.000000,
        0.080709 0.636117 0.000000,
        0.091154 0.631791 0.000000,
        0.102362 0.630315 0.000000,
        0.347059 0.631791 0.000000,
        0.358268 0.630315 0.000000,
        -0.787402 -0.314961 0.000000,
        -0.787402 -0.196850 0.000000,
        -0.673622 -0.314961 0.000000,
        -0.673622 -0.196850 0.000000,
        -0.662413 -0.195375 0.000000,
        -0.673622 -0.059055 0.000000,
        -0.787402 -0.059055 0.000000,
        -0.787402 0.059055 0.000000,
        -0.164752 -0.631791 0.000000,
        -0.175197 -0.636117 0.000000,
        -0.316436 -0.662413 0.000000,
        -0.184166 -0.642999 0.000000,
        -0.191048 -0.651969 0.000000,
        -0.195375 -0.662413 0.000000,
        -0.314961 -0.673622 0.000000,
        0.787402 0.314961 0.000000,
        0.787402 0.196850 0.000000,
        0.673622 0.314961 0.000000,
        0.673622 0.196850 0.000000,
        0.662413 0.195375 0.000000,
        0.673622 0.059055 0.000000,
        0.787402 0.059055 0.000000,
        0.787402 -0.059055 0.000000,
        -0.314961 0.673622 0.000000,
        -0.314961 0.787402 0.000000,
        -0.196850 0.787402 0.000000,
        -0.358268 0.630315 0.000000,
        -0.347059 0.631791 0.000000,
        0.196850 0.673622 0.000000,
        0.196850 0.787402 0.000000,
        0.314961 0.787402 0.000000,
        -0.662413 -0.060531 0.000000,
        -0.673622 0.059055 0.000000,
        -0.787402 0.196850 0.000000,
        -0.787402 0.314961 0.000000,
        -0.673622 0.196850 0.000000,
        -0.673622 0.314961 0.000000,
        -0.662413 0.316436 0.000000,
        -0.102362 -0.630315 0.000000,
        -0.153543 -0.630315 0.000000,
        -0.320763 -0.651969 0.000000,
        0.662413 0.060531 0.000000,
        0.673622 -0.059055 0.000000,
        0.787402 -0.196850 0.000000,
        0.787402 -0.314961 0.000000,
        0.673622 -0.196850 0.000000,
        0.673622 -0.314961 0.000000,
        0.662413 -0.316436 0.000000,
        -0.196850 0.673622 0.000000,
        -0.195375 0.662413 0.000000,
        -0.191048 0.651969 0.000000,
        0.314961 0.673622 0.000000,
        0.316436 0.662413 0.000000,
        0.320763 0.651969 0.000000,
        0.164752 -0.631791 0.000000,
        0.153543 -0.630315 0.000000,
        0.102362 -0.630315 0.000000,
        0.091154 -0.631791 0.000000,
        0.080709 -0.636117 0.000000,
        0.059055 -0.673622 0.000000,
        0.059055 -0.787402 0.000000,
        -0.059055 -0.787402 0.000000,
        0.060531 -0.662413 0.000000,
        -0.059055 -0.673622 0.000000,
        0.787402 -0.787402 0.326772,
        0.787402 -0.452756 0.070866,
        0.787402 -0.314961 0.070866,
        0.787402 0.787402 0.326772,
        0.787402 -0.059055 0.070866,
        0.787402 0.059055 0.070866,
        0.787402 0.196850 0.070866,
        0.787402 -0.196850 0.070866,
        0.787402 0.452756 0.070866,
        0.787402 0.314961 0.070866,
        0.059055 0.787402 0.070866,
        -0.196850 0.787402 0.070866,
        -0.314961 0.787402 0.070866,
        -0.452756 0.787402 0.070866,
        -0.787402 0.787402 0.326772,
        -0.059055 0.787402 0.070866,
        0.452756 0.787402 0.070866,
        0.314961 0.787402 0.070866,
        0.196850 0.787402 0.070866,
        -0.787402 -0.196850 0.070866,
        -0.787402 0.314961 0.070866,
        -0.787402 0.196850 0.070866,
        -0.787402 -0.452756 0.070866,
        -0.787402 -0.787402 0.326772,
        -0.787402 -0.314961 0.070866,
        -0.787402 0.452756 0.070866,
        -0.787402 0.059055 0.070866,
        -0.787402 -0.059055 0.070866,
        -0.452756 -0.787402 0.070866,
        -0.314961 -0.787402 0.070866,
        -0.059055 -0.787402 0.070866,
        0.059055 -0.787402 0.070866,
        0.196850 -0.787402 0.070866,
        -0.196850 -0.787402 0.070866,
        0.452756 -0.787402 0.070866,
        0.314961 -0.787402 0.070866,
        -0.631263 0.659102 0.326772,
        -0.635196 0.649606 0.326772,
        -0.669291 0.629921 0.326772,
        -0.679481 0.631263 0.326772,
        -0.688976 0.635196 0.326772,
        -0.697130 0.641452 0.326772,
        -0.707320 0.679481 0.326772,
        -0.703387 0.688976 0.326772,
        -0.641452 0.697130 0.326772,
        -0.635196 0.688976 0.326772,
        -0.641452 0.641452 0.326772,
        -0.649606 0.635196 0.326772,
        -0.659102 0.631263 0.326772,
        -0.631263 0.679481 0.326772,
        -0.629921 0.669291 0.326772,
        -0.703387 0.649606 0.326772,
        -0.707320 0.659102 0.326772,
        -0.708661 0.669291 0.326772,
        -0.697130 0.697130 0.326772,
        -0.688976 0.703387 0.326772,
        -0.679481 0.707320 0.326772,
        -0.669291 0.708661 0.326772,
        -0.659102 0.707320 0.326772,
        -0.649606 0.703387 0.326772,
      ]
    }
    coordIndex [
      0, 1, 2, -1,
      3, 4, 5, -1,
      2, 1, 6, -1,
      7, 8, 9, -1,
      10, 11, 12, -1,
      13, 14, 15, -1,
      16, 17, 18, -1,
      19, 20, 21, -1,
      21, 20, 5, -1,
      5, 20, 22, -1,
      5, 22, 3, -1,
      23, 24, 25, -1,
      26, 27, 28, -1,
      28, 27, 29, -1,
      21, 30, 31, -1,
      1, 32, 33, -1,
      33, 34, 1, -1,
      1, 34, 35, -1,
      1, 35, 36, -1,
      36, 37, 1, -1,
      1, 37, 38, -1,
      1, 38, 6, -1,
      39, 40, 9, -1,
      9, 40, 41, -1,
      9, 41, 42, -1,
      42, 41, 43, -1,
      43, 44, 42, -1,
      42, 44, 45, -1,
      42, 45, 46, -1,
      47, 48, 21, -1,
      21, 48, 49, -1,
      21, 49, 19, -1,
      50, 51, 52, -1,
      52, 51, 53, -1,
      25, 54, 55, -1,
      56, 57, 42, -1,
      42, 57, 58, -1,
      42, 58, 59, -1,
      60, 61, 62, -1,
      63, 64, 65, -1,
      66, 67, 68, -1,
      59, 69, 42, -1,
      42, 69, 70, -1,
      42, 70, 9, -1,
      9, 70, 71, -1,
      9, 71, 7, -1,
      72, 73, 74, -1,
      75, 76, 77, -1,
      77, 76, 78, -1,
      62, 61, 79, -1,
      23, 25, 80, -1,
      81, 82, 5, -1,
      5, 82, 83, -1,
      5, 83, 21, -1,
      21, 83, 84, -1,
      21, 84, 85, -1,
      85, 86, 21, -1,
      21, 86, 87, -1,
      21, 87, 88, -1,
      89, 90, 91, -1,
      91, 90, 65, -1,
      91, 65, 92, -1,
      92, 65, 64, -1,
      91, 93, 21, -1,
      21, 93, 94, -1,
      21, 94, 95, -1,
      32, 1, 96, -1,
      96, 1, 21, -1,
      96, 21, 11, -1,
      11, 21, 95, -1,
      11, 95, 12, -1,
      97, 98, 99, -1,
      100, 101, 102, -1,
      102, 101, 103, -1,
      102, 103, 104, -1,
      105, 106, 18, -1,
      18, 106, 107, -1,
      18, 107, 25, -1,
      25, 107, 108, -1,
      25, 108, 109, -1,
      109, 110, 25, -1,
      25, 110, 111, -1,
      25, 111, 112, -1,
      113, 114, 115, -1,
      115, 114, 68, -1,
      115, 68, 116, -1,
      116, 68, 67, -1,
      115, 117, 25, -1,
      25, 117, 118, -1,
      25, 118, 119, -1,
      56, 42, 120, -1,
      120, 42, 25, -1,
      120, 25, 14, -1,
      14, 25, 119, -1,
      14, 119, 15, -1,
      121, 122, 123, -1,
      124, 125, 126, -1,
      127, 128, 25, -1,
      25, 128, 129, -1,
      25, 129, 130, -1,
      24, 131, 25, -1,
      25, 131, 132, -1,
      25, 132, 18, -1,
      18, 132, 133, -1,
      18, 133, 16, -1,
      26, 134, 27, -1,
      27, 134, 135, -1,
      27, 135, 136, -1,
      31, 137, 21, -1,
      21, 137, 138, -1,
      21, 138, 91, -1,
      91, 138, 139, -1,
      91, 139, 89, -1,
      97, 99, 140, -1,
      46, 141, 42, -1,
      42, 141, 142, -1,
      42, 142, 104, -1,
      100, 102, 143, -1,
      143, 102, 144, -1,
      143, 144, 145, -1,
      146, 147, 148, -1,
      149, 150, 151, -1,
      151, 150, 152, -1,
      150, 153, 42, -1,
      42, 153, 154, -1,
      42, 154, 155, -1,
      50, 156, 51, -1,
      51, 156, 157, -1,
      51, 157, 158, -1,
      55, 159, 25, -1,
      25, 159, 160, -1,
      25, 160, 115, -1,
      115, 160, 161, -1,
      115, 161, 113, -1,
      121, 123, 162, -1,
      2, 163, 0, -1,
      0, 163, 164, -1,
      0, 164, 165, -1,
      165, 166, 0, -1,
      0, 166, 167, -1,
      0, 167, 168, -1,
      168, 169, 0, -1,
      0, 169, 170, -1,
      0, 170, 171, -1,
      72, 74, 126, -1,
      126, 74, 172, -1,
      126, 172, 124, -1,
      173, 174, 25, -1,
      174, 175, 25, -1,
      25, 175, 176, -1,
      25, 176, 78, -1,
      177, 178, 179, -1,
      88, 180, 21, -1,
      21, 180, 28, -1,
      21, 28, 30, -1,
      30, 28, 29, -1,
      10, 12, 99, -1,
      99, 12, 181, -1,
      99, 181, 140, -1,
      145, 182, 143, -1,
      143, 182, 146, -1,
      143, 146, 183, -1,
      183, 146, 148, -1,
      184, 185, 186, -1,
      187, 188, 42, -1,
      42, 188, 189, -1,
      42, 189, 21, -1,
      21, 189, 190, -1,
      21, 190, 47, -1,
      112, 191, 25, -1,
      25, 191, 52, -1,
      25, 52, 54, -1,
      54, 52, 53, -1,
      13, 15, 123, -1,
      123, 15, 192, -1,
      123, 192, 162, -1,
      179, 193, 177, -1,
      177, 193, 194, -1,
      177, 194, 75, -1,
      75, 194, 195, -1,
      75, 195, 76, -1,
      76, 196, 78, -1,
      78, 196, 197, -1,
      78, 197, 25, -1,
      25, 197, 198, -1,
      25, 198, 127, -1,
      79, 61, 130, -1,
      130, 61, 199, -1,
      130, 199, 25, -1,
      25, 199, 200, -1,
      25, 200, 80, -1,
      201, 202, 203, -1,
      203, 202, 204, -1,
      203, 204, 136, -1,
      136, 204, 205, -1,
      136, 205, 27, -1,
      206, 207, 208, -1,
      209, 210, 211, -1,
      211, 210, 212, -1,
      211, 212, 213, -1,
      213, 214, 211, -1,
      211, 214, 184, -1,
      211, 184, 215, -1,
      215, 184, 186, -1,
      216, 217, 218, -1,
      218, 217, 219, -1,
      218, 219, 158, -1,
      158, 219, 220, -1,
      158, 220, 51, -1,
      221, 222, 223, -1,
      224, 225, 226, -1,
      171, 227, 0, -1,
      0, 227, 228, -1,
      0, 228, 25, -1,
      25, 228, 74, -1,
      25, 74, 173, -1,
      173, 74, 73, -1,
      229, 230, 231, -1,
      65, 232, 63, -1,
      63, 232, 206, -1,
      63, 206, 233, -1,
      233, 206, 208, -1,
      234, 235, 236, -1,
      236, 235, 237, -1,
      236, 237, 98, -1,
      98, 237, 238, -1,
      98, 238, 99, -1,
      155, 239, 42, -1,
      42, 239, 240, -1,
      42, 240, 187, -1,
      187, 240, 209, -1,
      187, 209, 241, -1,
      241, 209, 211, -1,
      68, 242, 66, -1,
      66, 242, 221, -1,
      66, 221, 243, -1,
      243, 221, 223, -1,
      244, 245, 246, -1,
      246, 245, 247, -1,
      246, 247, 122, -1,
      122, 247, 248, -1,
      122, 248, 123, -1,
      226, 249, 224, -1,
      224, 249, 250, -1,
      224, 250, 125, -1,
      125, 250, 251, -1,
      125, 251, 126, -1,
      231, 252, 229, -1,
      229, 252, 253, -1,
      229, 253, 62, -1,
      62, 253, 254, -1,
      62, 254, 60, -1,
      104, 103, 42, -1,
      42, 103, 255, -1,
      42, 255, 256, -1,
      256, 257, 42, -1,
      42, 257, 258, -1,
      42, 258, 150, -1,
      150, 258, 259, -1,
      150, 259, 152, -1,
      260, 261, 262, -1,
      151, 263, 149, -1,
      149, 263, 260, -1,
      149, 260, 264, -1,
      264, 260, 262, -1,
      265, 9, 8, -1,
      8, 266, 265, -1,
      265, 266, 267, -1,
      265, 267, 268, -1,
      269, 223, 222, -1,
      270, 271, 268, -1,
      222, 270, 269, -1,
      269, 270, 268, -1,
      269, 268, 272, -1,
      272, 268, 267, -1,
      272, 267, 244, -1,
      244, 267, 245, -1,
      105, 18, 273, -1,
      273, 18, 268, -1,
      273, 268, 274, -1,
      274, 268, 271, -1,
      274, 271, 216, -1,
      216, 271, 217, -1,
      275, 179, 178, -1,
      226, 225, 276, -1,
      276, 225, 277, -1,
      164, 163, 278, -1,
      278, 163, 279, -1,
      278, 279, 277, -1,
      277, 279, 268, -1,
      277, 268, 276, -1,
      276, 268, 280, -1,
      18, 17, 268, -1,
      268, 17, 281, -1,
      268, 281, 282, -1,
      231, 230, 282, -1,
      282, 230, 283, -1,
      282, 283, 268, -1,
      268, 283, 275, -1,
      268, 275, 280, -1,
      280, 275, 178, -1,
      284, 202, 201, -1,
      279, 163, 2, -1,
      235, 234, 285, -1,
      285, 234, 286, -1,
      81, 5, 287, -1,
      287, 5, 288, -1,
      287, 288, 289, -1,
      2, 290, 279, -1,
      279, 290, 285, -1,
      279, 285, 288, -1,
      288, 285, 286, -1,
      288, 286, 291, -1,
      201, 289, 284, -1,
      284, 289, 288, -1,
      284, 288, 292, -1,
      292, 288, 291, -1,
      292, 291, 207, -1,
      207, 291, 208, -1,
      288, 5, 4, -1,
      4, 293, 288, -1,
      288, 293, 294, -1,
      288, 294, 265, -1,
      295, 262, 261, -1,
      296, 297, 265, -1,
      261, 296, 295, -1,
      295, 296, 265, -1,
      295, 265, 298, -1,
      298, 265, 294, -1,
      298, 294, 185, -1,
      185, 294, 186, -1,
      39, 9, 299, -1,
      299, 9, 265, -1,
      299, 265, 300, -1,
      300, 265, 297, -1,
      300, 297, 147, -1,
      147, 297, 148, -1,
      268, 301, 265, -1,
      265, 301, 302, -1,
      303, 304, 288, -1,
      288, 304, 305, -1,
      288, 305, 306, -1,
      279, 307, 308, -1,
      268, 309, 310, -1,
      302, 311, 265, -1,
      265, 311, 312, -1,
      265, 312, 288, -1,
      288, 312, 313, -1,
      288, 313, 303, -1,
      310, 314, 268, -1,
      268, 314, 315, -1,
      268, 315, 301, -1,
      306, 316, 288, -1,
      288, 316, 317, -1,
      288, 317, 279, -1,
      279, 317, 318, -1,
      279, 318, 307, -1,
      308, 319, 279, -1,
      279, 319, 320, -1,
      279, 320, 321, -1,
      321, 322, 279, -1,
      279, 322, 323, -1,
      279, 323, 268, -1,
      268, 323, 324, -1,
      268, 324, 309, -1,
    ]
  }
}

Shape {
  appearance Appearance {
    material Material {
      diffuseColor 0.6667 0.6667 0.6667
      specularColor 0.4667 0.4667 0.4667
      ambientIntensity 0.2
      transparency 0.0000
      shininess 0.5
    }
  }
  geometry IndexedFaceSet {
    ccw TRUE
    solid FALSE
    coord DEF co Coordinate {
      point [
        -0.008162 -0.543307 -0.007874,
        -0.543307 -0.543307 -0.007874,
        -0.543307 -0.027981 -0.007874,
        -0.008162 0.543307 -0.007874,
        0.543307 -0.027981 -0.007874,
        0.543307 0.543307 -0.007874,
        0.543307 -0.543307 -0.007874,
        -0.464567 0.543307 -0.007874,
        -0.543307 0.464567 -0.007874,
        -0.464567 0.543307 0.000000,
        -0.543307 0.464567 0.000000,
        -0.787402 0.452756 0.000000,
        -0.452756 -0.673622 0.000000,
        -0.452756 -0.787402 0.000000,
        -0.673622 0.452756 0.000000,
        0.673622 -0.452756 0.000000,
        0.787402 -0.452756 0.000000,
        -0.642999 0.327645 0.000000,
        -0.636117 0.336614 0.000000,
        -0.631791 0.164752 0.000000,
        0.642999 -0.327645 0.000000,
        0.636117 -0.336614 0.000000,
        0.631791 -0.164752 0.000000,
        0.452756 0.673622 0.000000,
        0.452756 0.787402 0.000000,
        -0.440072 -0.642999 0.000000,
        -0.446954 -0.651969 0.000000,
        -0.543307 -0.543307 0.000000,
        -0.451280 -0.662413 0.000000,
        0.420657 0.631791 0.000000,
        0.431102 0.636117 0.000000,
        0.543307 0.543307 0.000000,
        -0.636117 -0.336614 0.000000,
        -0.651969 -0.191048 0.000000,
        -0.631791 -0.347059 0.000000,
        -0.642999 -0.184166 0.000000,
        -0.636117 -0.175197 0.000000,
        -0.631791 -0.164752 0.000000,
        -0.630315 0.358268 0.000000,
        -0.630315 0.409449 0.000000,
        -0.631791 0.420657 0.000000,
        -0.636117 0.431102 0.000000,
        -0.642999 0.440072 0.000000,
        -0.651969 0.446954 0.000000,
        -0.662413 0.451280 0.000000,
        0.452756 -0.787402 0.000000,
        0.452756 -0.673622 0.000000,
        0.451280 -0.662413 0.000000,
        0.543307 -0.543307 0.000000,
        0.446954 -0.651969 0.000000,
        0.440072 -0.642999 0.000000,
        0.431102 -0.636117 0.000000,
        0.420657 -0.631791 0.000000,
        -0.409449 -0.630315 0.000000,
        -0.420657 -0.631791 0.000000,
        -0.431102 -0.636117 0.000000,
        0.636117 0.336614 0.000000,
        0.651969 0.191048 0.000000,
        0.631791 0.347059 0.000000,
        0.642999 0.184166 0.000000,
        0.636117 0.175197 0.000000,
        0.631791 0.164752 0.000000,
        0.630315 -0.358268 0.000000,
        0.630315 -0.409449 0.000000,
        0.631791 -0.420657 0.000000,
        0.636117 -0.431102 0.000000,
        0.327645 0.642999 0.000000,
        0.336614 0.636117 0.000000,
        0.195375 0.662413 0.000000,
        -0.662413 0.060531 0.000000,
        -0.651969 0.064857 0.000000,
        -0.651969 -0.064857 0.000000,
        0.662413 -0.060531 0.000000,
        0.651969 -0.064857 0.000000,
        0.651969 0.064857 0.000000,
        0.642999 -0.440072 0.000000,
        0.651969 -0.446954 0.000000,
        0.662413 -0.451280 0.000000,
        -0.175197 0.636117 0.000000,
        -0.164752 0.631791 0.000000,
        -0.336614 0.636117 0.000000,
        -0.060531 0.662413 0.000000,
        0.071739 0.642999 0.000000,
        -0.064857 0.651969 0.000000,
        -0.071739 0.642999 0.000000,
        0.191048 0.651969 0.000000,
        0.409449 0.630315 0.000000,
        -0.787402 -0.452756 0.000000,
        -0.673622 -0.452756 0.000000,
        -0.662413 -0.451280 0.000000,
        -0.651969 -0.446954 0.000000,
        -0.642999 -0.440072 0.000000,
        -0.636117 -0.431102 0.000000,
        -0.631791 -0.420657 0.000000,
        -0.630315 -0.409449 0.000000,
        -0.636117 -0.080709 0.000000,
        -0.642999 -0.071739 0.000000,
        -0.636117 0.080709 0.000000,
        -0.642999 0.071739 0.000000,
        -0.631791 0.091154 0.000000,
        -0.630315 0.102362 0.000000,
        -0.630315 0.153543 0.000000,
        -0.631791 0.347059 0.000000,
        -0.651969 0.191048 0.000000,
        -0.662413 0.195375 0.000000,
        -0.651969 0.320763 0.000000,
        0.191048 -0.651969 0.000000,
        0.184166 -0.642999 0.000000,
        0.336614 -0.636117 0.000000,
        0.175197 -0.636117 0.000000,
        0.347059 -0.631791 0.000000,
        0.787402 0.452756 0.000000,
        0.673622 0.452756 0.000000,
        0.662413 0.451280 0.000000,
        0.651969 0.446954 0.000000,
        0.642999 0.440072 0.000000,
        0.636117 0.431102 0.000000,
        0.631791 0.420657 0.000000,
        0.630315 0.409449 0.000000,
        0.636117 0.080709 0.000000,
        0.642999 0.071739 0.000000,
        0.636117 -0.080709 0.000000,
        0.642999 -0.071739 0.000000,
        0.631791 -0.091154 0.000000,
        0.630315 -0.102362 0.000000,
        0.630315 -0.153543 0.000000,
        0.631791 -0.347059 0.000000,
        0.651969 -0.191048 0.000000,
        0.662413 -0.195375 0.000000,
        0.651969 -0.320763 0.000000,
        -0.320763 0.651969 0.000000,
        -0.316436 0.662413 0.000000,
        -0.184166 0.642999 0.000000,
        0.153543 0.630315 0.000000,
        0.164752 0.631791 0.000000,
        0.175197 0.636117 0.000000,
        0.184166 0.642999 0.000000,
        0.440072 0.642999 0.000000,
        0.446954 0.651969 0.000000,
        0.451280 0.662413 0.000000,
        -0.642999 -0.327645 0.000000,
        -0.651969 -0.320763 0.000000,
        -0.662413 -0.316436 0.000000,
        -0.630315 -0.153543 0.000000,
        -0.630315 -0.102362 0.000000,
        -0.631791 -0.091154 0.000000,
        -0.642999 0.184166 0.000000,
        0.409449 -0.630315 0.000000,
        0.358268 -0.630315 0.000000,
        0.195375 -0.662413 0.000000,
        0.327645 -0.642999 0.000000,
        0.320763 -0.651969 0.000000,
        0.314961 -0.673622 0.000000,
        0.314961 -0.787402 0.000000,
        0.196850 -0.787402 0.000000,
        -0.060531 -0.662413 0.000000,
        -0.064857 -0.651969 0.000000,
        0.064857 -0.651969 0.000000,
        0.071739 -0.642999 0.000000,
        -0.071739 -0.642999 0.000000,
        -0.080709 -0.636117 0.000000,
        -0.091154 -0.631791 0.000000,
        0.642999 0.327645 0.000000,
        0.651969 0.320763 0.000000,
        0.662413 0.316436 0.000000,
        0.630315 0.153543 0.000000,
        0.630315 0.102362 0.000000,
        0.631791 0.091154 0.000000,
        0.642999 -0.184166 0.000000,
        -0.452756 0.787402 0.000000,
        -0.452756 0.673622 0.000000,
        -0.451280 0.662413 0.000000,
        -0.446954 0.651969 0.000000,
        -0.440072 0.642999 0.000000,
        -0.431102 0.636117 0.000000,
        -0.420657 0.631791 0.000000,
        -0.409449 0.630315 0.000000,
        -0.327645 0.642999 0.000000,
        -0.153543 0.630315 0.000000,
        -0.102362 0.630315 0.000000,
        -0.091154 0.631791 0.000000,
        -0.080709 0.636117 0.000000,
        -0.059055 0.673622 0.000000,
        -0.059055 0.787402 0.000000,
        0.059055 0.787402 0.000000,
        -0.630315 -0.358268 0.000000,
        -0.636117 0.175197 0.000000,
        0.316436 -0.662413 0.000000,
        0.196850 -0.673622 0.000000,
        -0.196850 -0.673622 0.000000,
        -0.196850 -0.787402 0.000000,
        -0.314961 -0.787402 0.000000,
        -0.327645 -0.642999 0.000000,
        -0.336614 -0.636117 0.000000,
        -0.347059 -0.631791 0.000000,
        -0.358268 -0.630315 0.000000,
        0.630315 0.358268 0.000000,
        0.636117 -0.175197 0.000000,
        0.059055 0.673622 0.000000,
        0.060531 0.662413 0.000000,
        0.064857 0.651969 0.000000,
        0.080709 0.636117 0.000000,
        0.091154 0.631791 0.000000,
        0.102362 0.630315 0.000000,
        0.347059 0.631791 0.000000,
        0.358268 0.630315 0.000000,
        -0.787402 -0.314961 0.000000,
        -0.787402 -0.196850 0.000000,
        -0.673622 -0.314961 0.000000,
        -0.673622 -0.196850 0.000000,
        -0.662413 -0.195375 0.000000,
        -0.673622 -0.059055 0.000000,
        -0.787402 -0.059055 0.000000,
        -0.787402 0.059055 0.000000,
        -0.164752 -0.631791 0.000000,
        -0.175197 -0.636117 0.000000,
        -0.316436 -0.662413 0.000000,
        -0.184166 -0.642999 0.000000,
        -0.191048 -0.651969 0.000000,
        -0.195375 -0.662413 0.000000,
        -0.314961 -0.673622 0.000000,
        0.787402 0.314961 0.000000,
        0.787402 0.196850 0.000000,
        0.673622 0.314961 0.000000,
        0.673622 0.196850 0.000000,
        0.662413 0.195375 0.000000,
        0.673622 0.059055 0.000000,
        0.787402 0.059055 0.000000,
        0.787402 -0.059055 0.000000,
        -0.314961 0.673622 0.000000,
        -0.314961 0.787402 0.000000,
        -0.196850 0.787402 0.000000,
        -0.358268 0.630315 0.000000,
        -0.347059 0.631791 0.000000,
        0.196850 0.673622 0.000000,
        0.196850 0.787402 0.000000,
        0.314961 0.787402 0.000000,
        -0.662413 -0.060531 0.000000,
        -0.673622 0.059055 0.000000,
        -0.787402 0.196850 0.000000,
        -0.787402 0.314961 0.000000,
        -0.673622 0.196850 0.000000,
        -0.673622 0.314961 0.000000,
        -0.662413 0.316436 0.000000,
        -0.102362 -0.630315 0.000000,
        -0.153543 -0.630315 0.000000,
        -0.320763 -0.651969 0.000000,
        0.662413 0.060531 0.000000,
        0.673622 -0.059055 0.000000,
        0.787402 -0.196850 0.000000,
        0.787402 -0.314961 0.000000,
        0.673622 -0.196850 0.000000,
        0.673622 -0.314961 0.000000,
        0.662413 -0.316436 0.000000,
        -0.196850 0.673622 0.000000,
        -0.195375 0.662413 0.000000,
        -0.191048 0.651969 0.000000,
        0.314961 0.673622 0.000000,
        0.316436 0.662413 0.000000,
        0.320763 0.651969 0.000000,
        0.164752 -0.631791 0.000000,
        0.153543 -0.630315 0.000000,
        0.102362 -0.630315 0.000000,
        0.091154 -0.631791 0.000000,
        0.080709 -0.636117 0.000000,
        0.059055 -0.673622 0.000000,
        0.059055 -0.787402 0.000000,
        -0.059055 -0.787402 0.000000,
        0.060531 -0.662413 0.000000,
        -0.059055 -0.673622 0.000000,
        0.787402 -0.452756 0.070866,
        0.787402 -0.314961 0.070866,
        0.787402 -0.059055 0.070866,
        0.787402 0.059055 0.070866,
        0.787402 0.196850 0.070866,
        0.787402 -0.196850 0.070866,
        0.787402 0.452756 0.070866,
        0.787402 0.314961 0.070866,
        0.059055 0.787402 0.070866,
        -0.196850 0.787402 0.070866,
        -0.314961 0.787402 0.070866,
        -0.452756 0.787402 0.070866,
        -0.059055 0.787402 0.070866,
        0.452756 0.787402 0.070866,
        0.314961 0.787402 0.070866,
        0.196850 0.787402 0.070866,
        -0.787402 -0.196850 0.070866,
        -0.787402 0.314961 0.070866,
        -0.787402 0.196850 0.070866,
        -0.787402 -0.452756 0.070866,
        -0.787402 -0.314961 0.070866,
        -0.787402 0.452756 0.070866,
        -0.787402 0.059055 0.070866,
        -0.787402 -0.059055 0.070866,
        -0.452756 -0.787402 0.070866,
        -0.314961 -0.787402 0.070866,
        -0.059055 -0.787402 0.070866,
        0.059055 -0.787402 0.070866,
        0.196850 -0.787402 0.070866,
        -0.196850 -0.787402 0.070866,
        0.452756 -0.787402 0.070866,
        0.314961 -0.787402 0.070866,
        0.787795 0.314961 0.070866,
        0.787795 0.452756 0.070866,
        0.787795 0.452756 -0.007874,
        0.673622 0.452756 -0.007874,
        0.673622 0.314961 -0.007874,
        0.787795 0.314961 -0.007874,
        0.662413 0.451280 -0.007874,
        0.651969 0.446954 -0.007874,
        0.642999 0.440072 -0.007874,
        0.636117 0.431102 -0.007874,
        0.631791 0.420657 -0.007874,
        0.630315 0.409449 -0.007874,
        0.630315 0.358268 -0.007874,
        0.631791 0.347059 -0.007874,
        0.636117 0.336614 -0.007874,
        0.642999 0.327645 -0.007874,
        0.651969 0.320763 -0.007874,
        0.662413 0.316436 -0.007874,
        0.787795 0.059055 0.070866,
        0.787795 0.196850 0.070866,
        0.787795 0.196850 -0.007874,
        0.673622 0.196850 -0.007874,
        0.673622 0.059055 -0.007874,
        0.787795 0.059055 -0.007874,
        0.662413 0.195375 -0.007874,
        0.651969 0.191048 -0.007874,
        0.642999 0.184166 -0.007874,
        0.636117 0.175197 -0.007874,
        0.631791 0.164752 -0.007874,
        0.630315 0.153543 -0.007874,
        0.630315 0.102362 -0.007874,
        0.631791 0.091154 -0.007874,
        0.636117 0.080709 -0.007874,
        0.642999 0.071739 -0.007874,
        0.651969 0.064857 -0.007874,
        0.662413 0.060531 -0.007874,
        0.787795 -0.196850 0.070866,
        0.787795 -0.059055 0.070866,
        0.787795 -0.059055 -0.007874,
        0.673622 -0.059055 -0.007874,
        0.673622 -0.196850 -0.007874,
        0.787795 -0.196850 -0.007874,
        0.662413 -0.060531 -0.007874,
        0.651969 -0.064857 -0.007874,
        0.642999 -0.071739 -0.007874,
        0.636117 -0.080709 -0.007874,
        0.631791 -0.091154 -0.007874,
        0.630315 -0.102362 -0.007874,
        0.630315 -0.153543 -0.007874,
        0.631791 -0.164752 -0.007874,
        0.636117 -0.175197 -0.007874,
        0.642999 -0.184166 -0.007874,
        0.651969 -0.191048 -0.007874,
        0.662413 -0.195375 -0.007874,
        0.787795 -0.452756 0.070866,
        0.787795 -0.314961 0.070866,
        0.787795 -0.314961 -0.007874,
        0.673622 -0.314961 -0.007874,
        0.673622 -0.452756 -0.007874,
        0.787795 -0.452756 -0.007874,
        0.662413 -0.316436 -0.007874,
        0.651969 -0.320763 -0.007874,
        0.642999 -0.327645 -0.007874,
        0.636117 -0.336614 -0.007874,
        0.631791 -0.347059 -0.007874,
        0.630315 -0.358268 -0.007874,
        0.630315 -0.409449 -0.007874,
        0.631791 -0.420657 -0.007874,
        0.636117 -0.431102 -0.007874,
        0.642999 -0.440072 -0.007874,
        0.651969 -0.446954 -0.007874,
        0.662413 -0.451280 -0.007874,
        0.314961 -0.787795 0.070866,
        0.452756 -0.787795 0.070866,
        0.452756 -0.787795 -0.007874,
        0.452756 -0.673622 -0.007874,
        0.314961 -0.673622 -0.007874,
        0.314961 -0.787795 -0.007874,
        0.451280 -0.662413 -0.007874,
        0.446954 -0.651969 -0.007874,
        0.440072 -0.642999 -0.007874,
        0.431102 -0.636117 -0.007874,
        0.420657 -0.631791 -0.007874,
        0.409449 -0.630315 -0.007874,
        0.358268 -0.630315 -0.007874,
        0.347059 -0.631791 -0.007874,
        0.336614 -0.636117 -0.007874,
        0.327645 -0.642999 -0.007874,
        0.320763 -0.651969 -0.007874,
        0.316436 -0.662413 -0.007874,
        0.059055 -0.787795 0.070866,
        0.196850 -0.787795 0.070866,
        0.196850 -0.787795 -0.007874,
        0.196850 -0.673622 -0.007874,
        0.059055 -0.673622 -0.007874,
        0.059055 -0.787795 -0.007874,
        0.195375 -0.662413 -0.007874,
        0.191048 -0.651969 -0.007874,
        0.184166 -0.642999 -0.007874,
        0.175197 -0.636117 -0.007874,
        0.164752 -0.631791 -0.007874,
        0.153543 -0.630315 -0.007874,
        0.102362 -0.630315 -0.007874,
        0.091154 -0.631791 -0.007874,
        0.080709 -0.636117 -0.007874,
        0.071739 -0.642999 -0.007874,
        0.064857 -0.651969 -0.007874,
        0.060531 -0.662413 -0.007874,
        -0.196850 -0.787795 0.070866,
        -0.059055 -0.787795 0.070866,
        -0.059055 -0.787795 -0.007874,
        -0.059055 -0.673622 -0.007874,
        -0.196850 -0.673622 -0.007874,
        -0.196850 -0.787795 -0.007874,
        -0.060531 -0.662413 -0.007874,
        -0.064857 -0.651969 -0.007874,
        -0.071739 -0.642999 -0.007874,
        -0.080709 -0.636117 -0.007874,
        -0.091154 -0.631791 -0.007874,
        -0.102362 -0.630315 -0.007874,
        -0.153543 -0.630315 -0.007874,
        -0.164752 -0.631791 -0.007874,
        -0.175197 -0.636117 -0.007874,
        -0.184166 -0.642999 -0.007874,
        -0.191048 -0.651969 -0.007874,
        -0.195375 -0.662413 -0.007874,
        -0.452756 -0.787795 0.070866,
        -0.314961 -0.787795 0.070866,
        -0.314961 -0.787795 -0.007874,
        -0.314961 -0.673622 -0.007874,
        -0.452756 -0.673622 -0.007874,
        -0.452756 -0.787795 -0.007874,
        -0.316436 -0.662413 -0.007874,
        -0.320763 -0.651969 -0.007874,
        -0.327645 -0.642999 -0.007874,
        -0.336614 -0.636117 -0.007874,
        -0.347059 -0.631791 -0.007874,
        -0.358268 -0.630315 -0.007874,
        -0.409449 -0.630315 -0.007874,
        -0.420657 -0.631791 -0.007874,
        -0.431102 -0.636117 -0.007874,
        -0.440072 -0.642999 -0.007874,
        -0.446954 -0.651969 -0.007874,
        -0.451280 -0.662413 -0.007874,
        -0.787795 -0.314961 0.070866,
        -0.787795 -0.452756 0.070866,
        -0.787795 -0.452756 -0.007874,
        -0.673622 -0.452756 -0.007874,
        -0.673622 -0.314961 -0.007874,
        -0.787795 -0.314961 -0.007874,
        -0.662413 -0.451280 -0.007874,
        -0.651969 -0.446954 -0.007874,
        -0.642999 -0.440072 -0.007874,
        -0.636117 -0.431102 -0.007874,
        -0.631791 -0.420657 -0.007874,
        -0.630315 -0.409449 -0.007874,
        -0.630315 -0.358268 -0.007874,
        -0.631791 -0.347059 -0.007874,
        -0.636117 -0.336614 -0.007874,
        -0.642999 -0.327645 -0.007874,
        -0.651969 -0.320763 -0.007874,
        -0.662413 -0.316436 -0.007874,
        -0.787795 -0.059055 0.070866,
        -0.787795 -0.196850 0.070866,
        -0.787795 -0.196850 -0.007874,
        -0.673622 -0.196850 -0.007874,
        -0.673622 -0.059055 -0.007874,
        -0.787795 -0.059055 -0.007874,
        -0.662413 -0.195375 -0.007874,
        -0.651969 -0.191048 -0.007874,
        -0.642999 -0.184166 -0.007874,
        -0.636117 -0.175197 -0.007874,
        -0.631791 -0.164752 -0.007874,
        -0.630315 -0.153543 -0.007874,
        -0.630315 -0.102362 -0.007874,
        -0.631791 -0.091154 -0.007874,
        -0.636117 -0.080709 -0.007874,
        -0.642999 -0.071739 -0.007874,
        -0.651969 -0.064857 -0.007874,
        -0.662413 -0.060531 -0.007874,
        -0.787795 0.196850 0.070866,
        -0.787795 0.059055 0.070866,
        -0.787795 0.059055 -0.007874,
        -0.673622 0.059055 -0.007874,
        -0.673622 0.196850 -0.007874,
        -0.787795 0.196850 -0.007874,
        -0.662413 0.060531 -0.007874,
        -0.651969 0.064857 -0.007874,
        -0.642999 0.071739 -0.007874,
        -0.636117 0.080709 -0.007874,
        -0.631791 0.091154 -0.007874,
        -0.630315 0.102362 -0.007874,
        -0.630315 0.153543 -0.007874,
        -0.631791 0.164752 -0.007874,
        -0.636117 0.175197 -0.007874,
        -0.642999 0.184166 -0.007874,
        -0.651969 0.191048 -0.007874,
        -0.662413 0.195375 -0.007874,
        -0.787795 0.452756 0.070866,
        -0.787795 0.314961 0.070866,
        -0.787795 0.314961 -0.007874,
        -0.673622 0.314961 -0.007874,
        -0.673622 0.452756 -0.007874,
        -0.787795 0.452756 -0.007874,
        -0.662413 0.316436 -0.007874,
        -0.651969 0.320763 -0.007874,
        -0.642999 0.327645 -0.007874,
        -0.636117 0.336614 -0.007874,
        -0.631791 0.347059 -0.007874,
        -0.630315 0.358268 -0.007874,
        -0.630315 0.409449 -0.007874,
        -0.631791 0.420657 -0.007874,
        -0.636117 0.431102 -0.007874,
        -0.642999 0.440072 -0.007874,
        -0.651969 0.446954 -0.007874,
        -0.662413 0.451280 -0.007874,
        -0.314961 0.787795 0.070866,
        -0.452756 0.787795 0.070866,
        -0.452756 0.787795 -0.007874,
        -0.452756 0.673622 -0.007874,
        -0.314961 0.673622 -0.007874,
        -0.314961 0.787795 -0.007874,
        -0.451280 0.662413 -0.007874,
        -0.446954 0.651969 -0.007874,
        -0.440072 0.642999 -0.007874,
        -0.431102 0.636117 -0.007874,
        -0.420657 0.631791 -0.007874,
        -0.409449 0.630315 -0.007874,
        -0.358268 0.630315 -0.007874,
        -0.347059 0.631791 -0.007874,
        -0.336614 0.636117 -0.007874,
        -0.327645 0.642999 -0.007874,
        -0.320763 0.651969 -0.007874,
        -0.316436 0.662413 -0.007874,
        -0.059055 0.787795 0.070866,
        -0.196850 0.787795 0.070866,
        -0.196850 0.787795 -0.007874,
        -0.196850 0.673622 -0.007874,
        -0.059055 0.673622 -0.007874,
        -0.059055 0.787795 -0.007874,
        -0.195375 0.662413 -0.007874,
        -0.191048 0.651969 -0.007874,
        -0.184166 0.642999 -0.007874,
        -0.175197 0.636117 -0.007874,
        -0.164752 0.631791 -0.007874,
        -0.153543 0.630315 -0.007874,
        -0.102362 0.630315 -0.007874,
        -0.091154 0.631791 -0.007874,
        -0.080709 0.636117 -0.007874,
        -0.071739 0.642999 -0.007874,
        -0.064857 0.651969 -0.007874,
        -0.060531 0.662413 -0.007874,
        0.196850 0.787795 0.070866,
        0.059055 0.787795 0.070866,
        0.059055 0.787795 -0.007874,
        0.059055 0.673622 -0.007874,
        0.196850 0.673622 -0.007874,
        0.196850 0.787795 -0.007874,
        0.060531 0.662413 -0.007874,
        0.064857 0.651969 -0.007874,
        0.071739 0.642999 -0.007874,
        0.080709 0.636117 -0.007874,
        0.091154 0.631791 -0.007874,
        0.102362 0.630315 -0.007874,
        0.153543 0.630315 -0.007874,
        0.164752 0.631791 -0.007874,
        0.175197 0.636117 -0.007874,
        0.184166 0.642999 -0.007874,
        0.191048 0.651969 -0.007874,
        0.195375 0.662413 -0.007874,
        0.452756 0.787795 0.070866,
        0.314961 0.787795 0.070866,
        0.314961 0.787795 -0.007874,
        0.314961 0.673622 -0.007874,
        0.452756 0.673622 -0.007874,
        0.452756 0.787795 -0.007874,
        0.316436 0.662413 -0.007874,
        0.320763 0.651969 -0.007874,
        0.327645 0.642999 -0.007874,
        0.336614 0.636117 -0.007874,
        0.347059 0.631791 -0.007874,
        0.358268 0.630315 -0.007874,
        0.409449 0.630315 -0.007874,
        0.420657 0.631791 -0.007874,
        0.431102 0.636117 -0.007874,
        0.440072 0.642999 -0.007874,
        0.446954 0.651969 -0.007874,
        0.451280 0.662413 -0.007874,
      ]
    }
    coordIndex [
      277, 302, 276, -1,
      276, 302, 303, -1,
      276, 303, 111, -1,
      111, 303, 304, -1,
      111, 304, 112, -1,
      112, 304, 305, -1,
      302, 277, 221, -1,
      223, 306, 221, -1,
      221, 306, 307, -1,
      221, 307, 302, -1,
      303, 302, 304, -1,
      304, 302, 307, -1,
      112, 305, 308, -1,
      112, 308, 113, -1,
      113, 308, 309, -1,
      113, 309, 114, -1,
      114, 309, 310, -1,
      114, 310, 115, -1,
      115, 310, 311, -1,
      115, 311, 116, -1,
      116, 311, 312, -1,
      116, 312, 117, -1,
      117, 312, 313, -1,
      117, 313, 118, -1,
      118, 313, 196, -1,
      196, 313, 314, -1,
      196, 314, 315, -1,
      196, 315, 58, -1,
      58, 315, 316, -1,
      58, 316, 56, -1,
      56, 316, 317, -1,
      56, 317, 162, -1,
      162, 317, 318, -1,
      162, 318, 163, -1,
      163, 318, 319, -1,
      163, 319, 164, -1,
      164, 319, 306, -1,
      164, 306, 223, -1,
      304, 307, 305, -1,
      305, 307, 306, -1,
      305, 306, 314, -1,
      314, 306, 319, -1,
      314, 319, 318, -1,
      310, 309, 311, -1,
      311, 309, 312, -1,
      314, 313, 305, -1,
      305, 313, 312, -1,
      305, 312, 308, -1,
      308, 312, 309, -1,
      317, 316, 318, -1,
      318, 316, 315, -1,
      318, 315, 314, -1,
      273, 320, 274, -1,
      274, 320, 321, -1,
      274, 321, 222, -1,
      222, 321, 322, -1,
      222, 322, 224, -1,
      224, 322, 323, -1,
      320, 273, 227, -1,
      226, 324, 227, -1,
      227, 324, 325, -1,
      227, 325, 320, -1,
      321, 320, 322, -1,
      322, 320, 325, -1,
      224, 323, 326, -1,
      224, 326, 225, -1,
      225, 326, 327, -1,
      225, 327, 57, -1,
      57, 327, 328, -1,
      57, 328, 59, -1,
      59, 328, 329, -1,
      59, 329, 60, -1,
      60, 329, 330, -1,
      60, 330, 61, -1,
      61, 330, 331, -1,
      61, 331, 165, -1,
      165, 331, 166, -1,
      166, 331, 332, -1,
      166, 332, 333, -1,
      166, 333, 167, -1,
      167, 333, 334, -1,
      167, 334, 119, -1,
      119, 334, 335, -1,
      119, 335, 120, -1,
      120, 335, 336, -1,
      120, 336, 74, -1,
      74, 336, 337, -1,
      74, 337, 247, -1,
      247, 337, 324, -1,
      247, 324, 226, -1,
      322, 325, 323, -1,
      323, 325, 324, -1,
      323, 331, 330, -1,
      331, 323, 332, -1,
      332, 323, 324, -1,
      332, 324, 337, -1,
      330, 329, 323, -1,
      323, 329, 328, -1,
      323, 328, 326, -1,
      326, 328, 327, -1,
      337, 336, 335, -1,
      335, 334, 337, -1,
      337, 334, 333, -1,
      337, 333, 332, -1,
      275, 338, 272, -1,
      272, 338, 339, -1,
      272, 339, 228, -1,
      228, 339, 340, -1,
      228, 340, 248, -1,
      248, 340, 341, -1,
      338, 275, 249, -1,
      251, 342, 249, -1,
      249, 342, 343, -1,
      249, 343, 338, -1,
      339, 338, 340, -1,
      340, 338, 343, -1,
      248, 341, 344, -1,
      248, 344, 72, -1,
      72, 344, 345, -1,
      72, 345, 73, -1,
      73, 345, 346, -1,
      73, 346, 122, -1,
      122, 346, 347, -1,
      122, 347, 121, -1,
      121, 347, 348, -1,
      121, 348, 123, -1,
      123, 348, 349, -1,
      123, 349, 124, -1,
      124, 349, 125, -1,
      125, 349, 350, -1,
      125, 350, 351, -1,
      125, 351, 22, -1,
      22, 351, 352, -1,
      22, 352, 197, -1,
      197, 352, 353, -1,
      197, 353, 168, -1,
      168, 353, 354, -1,
      168, 354, 127, -1,
      127, 354, 355, -1,
      127, 355, 128, -1,
      128, 355, 342, -1,
      128, 342, 251, -1,
      355, 354, 353, -1,
      351, 350, 342, -1,
      342, 350, 341, -1,
      342, 341, 343, -1,
      343, 341, 340, -1,
      355, 353, 342, -1,
      342, 353, 352, -1,
      342, 352, 351, -1,
      350, 349, 341, -1,
      341, 349, 348, -1,
      341, 348, 347, -1,
      347, 346, 341, -1,
      341, 346, 345, -1,
      341, 345, 344, -1,
      270, 356, 271, -1,
      271, 356, 357, -1,
      271, 357, 250, -1,
      250, 357, 358, -1,
      250, 358, 252, -1,
      252, 358, 359, -1,
      356, 270, 16, -1,
      15, 360, 16, -1,
      16, 360, 361, -1,
      16, 361, 356, -1,
      357, 356, 358, -1,
      358, 356, 361, -1,
      252, 359, 362, -1,
      252, 362, 253, -1,
      253, 362, 363, -1,
      253, 363, 129, -1,
      129, 363, 364, -1,
      129, 364, 20, -1,
      20, 364, 365, -1,
      20, 365, 21, -1,
      21, 365, 366, -1,
      21, 366, 126, -1,
      126, 366, 367, -1,
      126, 367, 62, -1,
      62, 367, 63, -1,
      63, 367, 368, -1,
      63, 368, 369, -1,
      63, 369, 64, -1,
      64, 369, 370, -1,
      64, 370, 65, -1,
      65, 370, 371, -1,
      65, 371, 75, -1,
      75, 371, 372, -1,
      75, 372, 76, -1,
      76, 372, 373, -1,
      76, 373, 77, -1,
      77, 373, 360, -1,
      77, 360, 15, -1,
      372, 371, 370, -1,
      369, 368, 360, -1,
      360, 368, 359, -1,
      360, 359, 361, -1,
      361, 359, 358, -1,
      369, 360, 370, -1,
      370, 360, 373, -1,
      370, 373, 372, -1,
      368, 367, 359, -1,
      359, 367, 366, -1,
      359, 366, 365, -1,
      365, 364, 359, -1,
      359, 364, 363, -1,
      359, 363, 362, -1,
      301, 374, 300, -1,
      300, 374, 375, -1,
      300, 375, 45, -1,
      45, 375, 376, -1,
      45, 376, 46, -1,
      46, 376, 377, -1,
      374, 301, 153, -1,
      152, 378, 153, -1,
      153, 378, 379, -1,
      153, 379, 374, -1,
      375, 374, 376, -1,
      376, 374, 379, -1,
      46, 377, 380, -1,
      46, 380, 47, -1,
      47, 380, 381, -1,
      47, 381, 49, -1,
      49, 381, 382, -1,
      49, 382, 50, -1,
      50, 382, 383, -1,
      50, 383, 51, -1,
      51, 383, 384, -1,
      51, 384, 52, -1,
      52, 384, 385, -1,
      52, 385, 147, -1,
      147, 385, 148, -1,
      148, 385, 386, -1,
      148, 386, 387, -1,
      148, 387, 110, -1,
      110, 387, 388, -1,
      110, 388, 108, -1,
      108, 388, 389, -1,
      108, 389, 150, -1,
      150, 389, 390, -1,
      150, 390, 151, -1,
      151, 390, 391, -1,
      151, 391, 187, -1,
      187, 391, 378, -1,
      187, 378, 152, -1,
      376, 379, 377, -1,
      377, 379, 378, -1,
      381, 385, 382, -1,
      382, 385, 384, -1,
      382, 384, 383, -1,
      381, 380, 385, -1,
      385, 380, 377, -1,
      385, 377, 386, -1,
      386, 377, 378, -1,
      386, 378, 387, -1,
      378, 391, 387, -1,
      387, 391, 390, -1,
      387, 390, 388, -1,
      388, 390, 389, -1,
      297, 392, 298, -1,
      298, 392, 393, -1,
      298, 393, 154, -1,
      154, 393, 394, -1,
      154, 394, 188, -1,
      188, 394, 395, -1,
      392, 297, 266, -1,
      265, 396, 266, -1,
      266, 396, 397, -1,
      266, 397, 392, -1,
      393, 392, 394, -1,
      394, 392, 397, -1,
      188, 395, 398, -1,
      188, 398, 149, -1,
      149, 398, 399, -1,
      149, 399, 106, -1,
      106, 399, 400, -1,
      106, 400, 107, -1,
      107, 400, 401, -1,
      107, 401, 109, -1,
      109, 401, 402, -1,
      109, 402, 260, -1,
      260, 402, 403, -1,
      260, 403, 261, -1,
      261, 403, 262, -1,
      262, 403, 404, -1,
      262, 404, 405, -1,
      262, 405, 263, -1,
      263, 405, 406, -1,
      263, 406, 264, -1,
      264, 406, 407, -1,
      264, 407, 158, -1,
      158, 407, 408, -1,
      158, 408, 157, -1,
      157, 408, 409, -1,
      157, 409, 268, -1,
      268, 409, 396, -1,
      268, 396, 265, -1,
      395, 394, 403, -1,
      395, 403, 398, -1,
      394, 397, 403, -1,
      403, 397, 396, -1,
      403, 396, 404, -1,
      404, 396, 405, -1,
      402, 401, 400, -1,
      402, 400, 403, -1,
      403, 400, 399, -1,
      403, 399, 398, -1,
      396, 409, 405, -1,
      405, 409, 408, -1,
      405, 408, 406, -1,
      406, 408, 407, -1,
      299, 410, 296, -1,
      296, 410, 411, -1,
      296, 411, 267, -1,
      267, 411, 412, -1,
      267, 412, 269, -1,
      269, 412, 413, -1,
      410, 299, 190, -1,
      189, 414, 190, -1,
      190, 414, 415, -1,
      190, 415, 410, -1,
      411, 410, 412, -1,
      412, 410, 415, -1,
      269, 413, 416, -1,
      269, 416, 155, -1,
      155, 416, 417, -1,
      155, 417, 156, -1,
      156, 417, 418, -1,
      156, 418, 159, -1,
      159, 418, 419, -1,
      159, 419, 160, -1,
      160, 419, 420, -1,
      160, 420, 161, -1,
      161, 420, 421, -1,
      161, 421, 244, -1,
      244, 421, 245, -1,
      245, 421, 422, -1,
      245, 422, 423, -1,
      245, 423, 214, -1,
      214, 423, 424, -1,
      214, 424, 215, -1,
      215, 424, 425, -1,
      215, 425, 217, -1,
      217, 425, 426, -1,
      217, 426, 218, -1,
      218, 426, 427, -1,
      218, 427, 219, -1,
      219, 427, 414, -1,
      219, 414, 189, -1,
      415, 414, 421, -1,
      420, 413, 421, -1,
      421, 413, 412, -1,
      421, 412, 415, -1,
      420, 419, 413, -1,
      413, 419, 418, -1,
      413, 418, 416, -1,
      416, 418, 417, -1,
      427, 423, 414, -1,
      414, 423, 422, -1,
      414, 422, 421, -1,
      427, 426, 423, -1,
      423, 426, 425, -1,
      423, 425, 424, -1,
      294, 428, 295, -1,
      295, 428, 429, -1,
      295, 429, 191, -1,
      191, 429, 430, -1,
      191, 430, 220, -1,
      220, 430, 431, -1,
      428, 294, 13, -1,
      12, 432, 13, -1,
      13, 432, 433, -1,
      13, 433, 428, -1,
      429, 428, 430, -1,
      430, 428, 433, -1,
      220, 431, 434, -1,
      220, 434, 216, -1,
      216, 434, 435, -1,
      216, 435, 246, -1,
      246, 435, 436, -1,
      246, 436, 192, -1,
      192, 436, 437, -1,
      192, 437, 193, -1,
      193, 437, 438, -1,
      193, 438, 194, -1,
      194, 438, 439, -1,
      194, 439, 195, -1,
      195, 439, 53, -1,
      53, 439, 440, -1,
      53, 440, 441, -1,
      53, 441, 54, -1,
      54, 441, 442, -1,
      54, 442, 55, -1,
      55, 442, 443, -1,
      55, 443, 25, -1,
      25, 443, 444, -1,
      25, 444, 26, -1,
      26, 444, 445, -1,
      26, 445, 28, -1,
      28, 445, 432, -1,
      28, 432, 12, -1,
      440, 439, 430, -1,
      430, 439, 431, -1,
      431, 439, 438, -1,
      431, 438, 437, -1,
      430, 433, 440, -1,
      440, 433, 432, -1,
      440, 432, 445, -1,
      436, 435, 437, -1,
      437, 435, 434, -1,
      437, 434, 431, -1,
      442, 441, 443, -1,
      443, 441, 440, -1,
      443, 440, 444, -1,
      444, 440, 445, -1,
      290, 446, 289, -1,
      289, 446, 447, -1,
      289, 447, 87, -1,
      87, 447, 448, -1,
      87, 448, 88, -1,
      88, 448, 449, -1,
      446, 290, 206, -1,
      208, 450, 206, -1,
      206, 450, 451, -1,
      206, 451, 446, -1,
      447, 446, 448, -1,
      448, 446, 451, -1,
      88, 449, 452, -1,
      88, 452, 89, -1,
      89, 452, 453, -1,
      89, 453, 90, -1,
      90, 453, 454, -1,
      90, 454, 91, -1,
      91, 454, 455, -1,
      91, 455, 92, -1,
      92, 455, 456, -1,
      92, 456, 93, -1,
      93, 456, 457, -1,
      93, 457, 94, -1,
      94, 457, 185, -1,
      185, 457, 458, -1,
      185, 458, 459, -1,
      185, 459, 34, -1,
      34, 459, 460, -1,
      34, 460, 32, -1,
      32, 460, 461, -1,
      32, 461, 140, -1,
      140, 461, 462, -1,
      140, 462, 141, -1,
      141, 462, 463, -1,
      141, 463, 142, -1,
      142, 463, 450, -1,
      142, 450, 208, -1,
      460, 459, 461, -1,
      461, 459, 458, -1,
      461, 458, 462, -1,
      454, 453, 455, -1,
      455, 453, 456, -1,
      458, 457, 449, -1,
      449, 457, 456, -1,
      449, 456, 452, -1,
      452, 456, 453, -1,
      448, 451, 449, -1,
      449, 451, 450, -1,
      449, 450, 458, -1,
      458, 450, 463, -1,
      458, 463, 462, -1,
      293, 464, 286, -1,
      286, 464, 465, -1,
      286, 465, 207, -1,
      207, 465, 466, -1,
      207, 466, 209, -1,
      209, 466, 467, -1,
      464, 293, 212, -1,
      211, 468, 212, -1,
      212, 468, 469, -1,
      212, 469, 464, -1,
      465, 464, 466, -1,
      466, 464, 469, -1,
      209, 467, 470, -1,
      209, 470, 210, -1,
      210, 470, 471, -1,
      210, 471, 33, -1,
      33, 471, 472, -1,
      33, 472, 35, -1,
      35, 472, 473, -1,
      35, 473, 36, -1,
      36, 473, 474, -1,
      36, 474, 37, -1,
      37, 474, 475, -1,
      37, 475, 143, -1,
      143, 475, 144, -1,
      144, 475, 476, -1,
      144, 476, 477, -1,
      144, 477, 145, -1,
      145, 477, 478, -1,
      145, 478, 95, -1,
      95, 478, 479, -1,
      95, 479, 96, -1,
      96, 479, 480, -1,
      96, 480, 71, -1,
      71, 480, 481, -1,
      71, 481, 237, -1,
      237, 481, 468, -1,
      237, 468, 211, -1,
      481, 480, 479, -1,
      477, 476, 468, -1,
      468, 476, 467, -1,
      468, 467, 469, -1,
      469, 467, 466, -1,
      481, 479, 468, -1,
      468, 479, 478, -1,
      468, 478, 477, -1,
      476, 475, 467, -1,
      467, 475, 474, -1,
      467, 474, 473, -1,
      473, 472, 467, -1,
      467, 472, 471, -1,
      467, 471, 470, -1,
      288, 482, 292, -1,
      292, 482, 483, -1,
      292, 483, 213, -1,
      213, 483, 484, -1,
      213, 484, 238, -1,
      238, 484, 485, -1,
      482, 288, 239, -1,
      241, 486, 239, -1,
      239, 486, 487, -1,
      239, 487, 482, -1,
      483, 482, 484, -1,
      484, 482, 487, -1,
      238, 485, 488, -1,
      238, 488, 69, -1,
      69, 488, 489, -1,
      69, 489, 70, -1,
      70, 489, 490, -1,
      70, 490, 98, -1,
      98, 490, 491, -1,
      98, 491, 97, -1,
      97, 491, 492, -1,
      97, 492, 99, -1,
      99, 492, 493, -1,
      99, 493, 100, -1,
      100, 493, 101, -1,
      101, 493, 494, -1,
      101, 494, 495, -1,
      101, 495, 19, -1,
      19, 495, 496, -1,
      19, 496, 186, -1,
      186, 496, 497, -1,
      186, 497, 146, -1,
      146, 497, 498, -1,
      146, 498, 103, -1,
      103, 498, 499, -1,
      103, 499, 104, -1,
      104, 499, 486, -1,
      104, 486, 241, -1,
      496, 495, 497, -1,
      497, 495, 494, -1,
      497, 494, 498, -1,
      484, 487, 485, -1,
      485, 487, 486, -1,
      485, 486, 494, -1,
      494, 486, 499, -1,
      494, 499, 498, -1,
      494, 493, 485, -1,
      485, 493, 492, -1,
      485, 492, 491, -1,
      491, 490, 485, -1,
      485, 490, 489, -1,
      485, 489, 488, -1,
      291, 500, 287, -1,
      287, 500, 501, -1,
      287, 501, 240, -1,
      240, 501, 502, -1,
      240, 502, 242, -1,
      242, 502, 503, -1,
      500, 291, 11, -1,
      14, 504, 11, -1,
      11, 504, 505, -1,
      11, 505, 500, -1,
      501, 500, 502, -1,
      502, 500, 505, -1,
      242, 503, 506, -1,
      242, 506, 243, -1,
      243, 506, 507, -1,
      243, 507, 105, -1,
      105, 507, 508, -1,
      105, 508, 17, -1,
      17, 508, 509, -1,
      17, 509, 18, -1,
      18, 509, 510, -1,
      18, 510, 102, -1,
      102, 510, 511, -1,
      102, 511, 38, -1,
      38, 511, 39, -1,
      39, 511, 512, -1,
      39, 512, 513, -1,
      39, 513, 40, -1,
      40, 513, 514, -1,
      40, 514, 41, -1,
      41, 514, 515, -1,
      41, 515, 42, -1,
      42, 515, 516, -1,
      42, 516, 43, -1,
      43, 516, 517, -1,
      43, 517, 44, -1,
      44, 517, 504, -1,
      44, 504, 14, -1,
      516, 515, 514, -1,
      513, 512, 504, -1,
      504, 512, 503, -1,
      504, 503, 505, -1,
      505, 503, 502, -1,
      513, 504, 514, -1,
      514, 504, 517, -1,
      514, 517, 516, -1,
      507, 510, 508, -1,
      508, 510, 509, -1,
      512, 511, 503, -1,
      503, 511, 510, -1,
      503, 510, 506, -1,
      506, 510, 507, -1,
      280, 518, 281, -1,
      281, 518, 519, -1,
      281, 519, 169, -1,
      169, 519, 520, -1,
      169, 520, 170, -1,
      170, 520, 521, -1,
      518, 280, 230, -1,
      229, 522, 230, -1,
      230, 522, 523, -1,
      230, 523, 518, -1,
      519, 518, 520, -1,
      520, 518, 523, -1,
      170, 521, 524, -1,
      170, 524, 171, -1,
      171, 524, 525, -1,
      171, 525, 172, -1,
      172, 525, 526, -1,
      172, 526, 173, -1,
      173, 526, 527, -1,
      173, 527, 174, -1,
      174, 527, 528, -1,
      174, 528, 175, -1,
      175, 528, 529, -1,
      175, 529, 176, -1,
      176, 529, 232, -1,
      232, 529, 530, -1,
      232, 530, 531, -1,
      232, 531, 233, -1,
      233, 531, 532, -1,
      233, 532, 80, -1,
      80, 532, 533, -1,
      80, 533, 177, -1,
      177, 533, 534, -1,
      177, 534, 130, -1,
      130, 534, 535, -1,
      130, 535, 131, -1,
      131, 535, 522, -1,
      131, 522, 229, -1,
      530, 529, 521, -1,
      534, 533, 532, -1,
      531, 530, 522, -1,
      522, 530, 521, -1,
      522, 521, 523, -1,
      523, 521, 520, -1,
      527, 526, 525, -1,
      529, 528, 521, -1,
      521, 528, 527, -1,
      521, 527, 524, -1,
      524, 527, 525, -1,
      531, 522, 532, -1,
      532, 522, 535, -1,
      532, 535, 534, -1,
      282, 536, 279, -1,
      279, 536, 537, -1,
      279, 537, 231, -1,
      231, 537, 538, -1,
      231, 538, 254, -1,
      254, 538, 539, -1,
      536, 282, 183, -1,
      182, 540, 183, -1,
      183, 540, 541, -1,
      183, 541, 536, -1,
      537, 536, 538, -1,
      538, 536, 541, -1,
      254, 539, 542, -1,
      254, 542, 255, -1,
      255, 542, 543, -1,
      255, 543, 256, -1,
      256, 543, 544, -1,
      256, 544, 132, -1,
      132, 544, 545, -1,
      132, 545, 78, -1,
      78, 545, 546, -1,
      78, 546, 79, -1,
      79, 546, 547, -1,
      79, 547, 178, -1,
      178, 547, 179, -1,
      179, 547, 548, -1,
      179, 548, 549, -1,
      179, 549, 180, -1,
      180, 549, 550, -1,
      180, 550, 181, -1,
      181, 550, 551, -1,
      181, 551, 84, -1,
      84, 551, 552, -1,
      84, 552, 83, -1,
      83, 552, 553, -1,
      83, 553, 81, -1,
      81, 553, 540, -1,
      81, 540, 182, -1,
      542, 539, 547, -1,
      538, 541, 539, -1,
      539, 541, 540, -1,
      545, 544, 543, -1,
      547, 539, 548, -1,
      548, 539, 540, -1,
      548, 540, 549, -1,
      552, 551, 550, -1,
      542, 547, 543, -1,
      543, 547, 546, -1,
      543, 546, 545, -1,
      549, 540, 550, -1,
      550, 540, 553, -1,
      550, 553, 552, -1,
      285, 554, 278, -1,
      278, 554, 555, -1,
      278, 555, 184, -1,
      184, 555, 556, -1,
      184, 556, 198, -1,
      198, 556, 557, -1,
      554, 285, 235, -1,
      234, 558, 235, -1,
      235, 558, 559, -1,
      235, 559, 554, -1,
      555, 554, 556, -1,
      556, 554, 559, -1,
      198, 557, 560, -1,
      198, 560, 199, -1,
      199, 560, 561, -1,
      199, 561, 200, -1,
      200, 561, 562, -1,
      200, 562, 82, -1,
      82, 562, 563, -1,
      82, 563, 201, -1,
      201, 563, 564, -1,
      201, 564, 202, -1,
      202, 564, 565, -1,
      202, 565, 203, -1,
      203, 565, 133, -1,
      133, 565, 566, -1,
      133, 566, 567, -1,
      133, 567, 134, -1,
      134, 567, 568, -1,
      134, 568, 135, -1,
      135, 568, 569, -1,
      135, 569, 136, -1,
      136, 569, 570, -1,
      136, 570, 85, -1,
      85, 570, 571, -1,
      85, 571, 68, -1,
      68, 571, 558, -1,
      68, 558, 234, -1,
      556, 559, 557, -1,
      557, 559, 558, -1,
      570, 569, 568, -1,
      561, 565, 562, -1,
      562, 565, 564, -1,
      562, 564, 563, -1,
      561, 560, 565, -1,
      565, 560, 557, -1,
      565, 557, 566, -1,
      566, 557, 558, -1,
      566, 558, 567, -1,
      567, 558, 568, -1,
      568, 558, 571, -1,
      568, 571, 570, -1,
      283, 572, 284, -1,
      284, 572, 573, -1,
      284, 573, 236, -1,
      236, 573, 574, -1,
      236, 574, 257, -1,
      257, 574, 575, -1,
      572, 283, 24, -1,
      23, 576, 24, -1,
      24, 576, 577, -1,
      24, 577, 572, -1,
      573, 572, 574, -1,
      574, 572, 577, -1,
      257, 575, 578, -1,
      257, 578, 258, -1,
      258, 578, 579, -1,
      258, 579, 259, -1,
      259, 579, 580, -1,
      259, 580, 66, -1,
      66, 580, 581, -1,
      66, 581, 67, -1,
      67, 581, 582, -1,
      67, 582, 204, -1,
      204, 582, 583, -1,
      204, 583, 205, -1,
      205, 583, 86, -1,
      86, 583, 584, -1,
      86, 584, 585, -1,
      86, 585, 29, -1,
      29, 585, 586, -1,
      29, 586, 30, -1,
      30, 586, 587, -1,
      30, 587, 137, -1,
      137, 587, 588, -1,
      137, 588, 138, -1,
      138, 588, 589, -1,
      138, 589, 139, -1,
      139, 589, 576, -1,
      139, 576, 23, -1,
      578, 575, 583, -1,
      574, 577, 575, -1,
      575, 577, 576, -1,
      581, 580, 579, -1,
      583, 575, 584, -1,
      584, 575, 576, -1,
      584, 576, 585, -1,
      576, 589, 588, -1,
      578, 583, 579, -1,
      579, 583, 582, -1,
      579, 582, 581, -1,
      588, 587, 576, -1,
      576, 587, 586, -1,
      576, 586, 585, -1,
      5, 31, 4, -1,
      4, 31, 48, -1,
      4, 48, 6, -1,
      6, 48, 0, -1,
      0, 48, 27, -1,
      0, 27, 1, -1,
      1, 27, 2, -1,
      2, 27, 10, -1,
      2, 10, 8, -1,
      7, 8, 9, -1,
      9, 8, 10, -1,
      7, 9, 3, -1,
      3, 9, 31, -1,
      3, 31, 5, -1,
    ]
  }
}

Shape {
  appearance Appearance {
    material Material {
      diffuseColor 0.3490 0.3490 0.3490
      specularColor 0.0235 0.0235 0.0235
      ambientIntensity 0.2
      transparency 0.0000
      shininess 0.5
    }
  }
  geometry IndexedFaceSet {
    ccw TRUE
    solid FALSE
    coord DEF co Coordinate {
      point [
        -0.631263 0.659102 0.326772,
        -0.635196 0.649606 0.326772,
        -0.669291 0.629921 0.326772,
        -0.679481 0.631263 0.326772,
        -0.688976 0.635196 0.326772,
        -0.697130 0.641452 0.326772,
        -0.707320 0.679481 0.326772,
        -0.703387 0.688976 0.326772,
        -0.641452 0.697130 0.326772,
        -0.635196 0.688976 0.326772,
        -0.641452 0.641452 0.326772,
        -0.649606 0.635196 0.326772,
        -0.659102 0.631263 0.326772,
        -0.631263 0.679481 0.326772,
        -0.629921 0.669291 0.326772,
        -0.703387 0.649606 0.326772,
        -0.707320 0.659102 0.326772,
        -0.708661 0.669291 0.326772,
        -0.697130 0.697130 0.326772,
        -0.688976 0.703387 0.326772,
        -0.679481 0.707320 0.326772,
        -0.669291 0.708661 0.326772,
        -0.659102 0.707320 0.326772,
        -0.649606 0.703387 0.326772,
        -0.629921 0.669291 0.318898,
        -0.631263 0.679481 0.318898,
        -0.635196 0.688976 0.318898,
        -0.641452 0.697130 0.318898,
        -0.649606 0.703387 0.318898,
        -0.659102 0.707320 0.318898,
        -0.669291 0.708661 0.318898,
        -0.679481 0.707320 0.318898,
        -0.688976 0.703387 0.318898,
        -0.697130 0.697130 0.318898,
        -0.703387 0.688976 0.318898,
        -0.707320 0.679481 0.318898,
        -0.708661 0.669291 0.318898,
        -0.707320 0.659102 0.318898,
        -0.703387 0.649606 0.318898,
        -0.697130 0.641452 0.318898,
        -0.688976 0.635196 0.318898,
        -0.679481 0.631263 0.318898,
        -0.669291 0.629921 0.318898,
        -0.659102 0.631263 0.318898,
        -0.649606 0.635196 0.318898,
        -0.641452 0.641452 0.318898,
        -0.635196 0.649606 0.318898,
        -0.631263 0.659102 0.318898,
        -0.669291 0.669291 0.318898,
      ]
    }
    coordIndex [
      24, 14, 25, -1,
      25, 14, 13, -1,
      25, 13, 26, -1,
      26, 13, 9, -1,
      26, 9, 27, -1,
      27, 9, 8, -1,
      27, 8, 28, -1,
      28, 8, 23, -1,
      28, 23, 29, -1,
      29, 23, 22, -1,
      29, 22, 30, -1,
      30, 22, 21, -1,
      30, 21, 31, -1,
      31, 21, 20, -1,
      31, 20, 32, -1,
      32, 20, 19, -1,
      32, 19, 33, -1,
      33, 19, 18, -1,
      33, 18, 34, -1,
      34, 18, 7, -1,
      34, 7, 35, -1,
      35, 7, 6, -1,
      35, 6, 36, -1,
      36, 6, 17, -1,
      36, 17, 37, -1,
      37, 17, 16, -1,
      37, 16, 38, -1,
      38, 16, 15, -1,
      38, 15, 39, -1,
      39, 15, 5, -1,
      39, 5, 40, -1,
      40, 5, 4, -1,
      40, 4, 41, -1,
      41, 4, 3, -1,
      41, 3, 42, -1,
      42, 3, 2, -1,
      42, 2, 43, -1,
      43, 2, 12, -1,
      43, 12, 44, -1,
      44, 12, 11, -1,
      44, 11, 45, -1,
      45, 11, 10, -1,
      45, 10, 46, -1,
      46, 10, 1, -1,
      46, 1, 47, -1,
      47, 1, 0, -1,
      47, 0, 24, -1,
      24, 0, 14, -1,
      46, 47, 48, -1,
      48, 47, 24, -1,
      48, 24, 25, -1,
      43, 44, 48, -1,
      48, 44, 45, -1,
      48, 45, 46, -1,
      40, 41, 48, -1,
      48, 41, 42, -1,
      48, 42, 43, -1,
      37, 38, 48, -1,
      48, 38, 39, -1,
      48, 39, 40, -1,
      34, 35, 48, -1,
      48, 35, 36, -1,
      48, 36, 37, -1,
      31, 32, 48, -1,
      48, 32, 33, -1,
      48, 33, 34, -1,
      28, 29, 48, -1,
      48, 29, 30, -1,
      48, 30, 31, -1,
      25, 26, 48, -1,
      48, 26, 27, -1,
      48, 27, 28, -1,
    ]
  }
}

Shape {
  appearance Appearance {
    material Material {
      diffuseColor 1.0000 1.0000 1.0000
      specularColor 0.8784 0.8784 0.8784
      ambientIntensity 0.2
      transparency 0.0000
      shininess 0.5
    }
  }
  geometry IndexedFaceSet {
    ccw TRUE
    solid FALSE
    coord DEF co Coordinate {
      point [
        -0.052333 -0.027741 -0.007874,
        -0.046572 -0.027741 -0.007874,
        -0.082101 -0.027741 -0.007874,
        -0.076339 -0.027741 -0.007874,
        -0.041725 -0.016950 -0.007874,
        -0.039467 -0.020472 -0.007874,
        -0.036227 -0.023574 -0.007874,
        -0.032116 -0.025963 -0.007874,
        -0.072356 -0.016698 -0.007874,
        -0.056092 -0.016698 -0.007874,
        -0.012003 0.011630 -0.007874,
        -0.023113 0.011630 -0.007874,
        -0.028801 0.011022 -0.007874,
        -0.033407 0.009404 -0.007874,
        -0.037693 0.006532 -0.007874,
        -0.061456 0.011630 -0.007874,
        -0.037734 0.006496 -0.007874,
        -0.040518 0.003409 -0.007874,
        -0.042348 0.000023 -0.007874,
        -0.027580 -0.027315 -0.007874,
        -0.022708 -0.027741 -0.007874,
        -0.012003 -0.027741 -0.007874,
        -0.043405 -0.003856 -0.007874,
        -0.043691 -0.007560 -0.007874,
        -0.043139 -0.012829 -0.007874,
        -0.004321 -0.023419 -0.007874,
        -0.004321 -0.027741 -0.007874,
        0.016804 -0.027741 -0.007874,
        -0.003361 0.007308 -0.007874,
        0.011523 0.007308 -0.007874,
        0.011523 -0.005655 -0.007874,
        0.024486 -0.025700 -0.007874,
        0.024486 -0.021379 -0.007874,
        0.016804 0.011630 -0.007874,
        0.028683 -0.027423 -0.007874,
        0.032661 -0.027981 -0.007874,
        0.011523 -0.009976 -0.007874,
        0.011523 -0.023419 -0.007874,
        -0.002401 -0.009976 -0.007874,
        -0.002401 -0.005655 -0.007874,
        0.043987 -0.026404 -0.007874,
        0.057135 -0.027741 -0.007874,
        0.040171 -0.027718 -0.007874,
        0.037634 -0.027981 -0.007874,
        0.077300 -0.027741 -0.007874,
        0.077300 0.011630 -0.007874,
        0.072019 0.011630 -0.007874,
        -0.003361 0.011630 -0.007874,
        0.037583 0.007353 -0.007874,
        0.040530 0.006290 -0.007874,
        0.025192 -0.021770 -0.007874,
        0.043255 0.004467 -0.007874,
        0.045632 0.001842 -0.007874,
        0.048493 -0.008476 -0.007874,
        0.048094 -0.012738 -0.007874,
        0.047024 -0.016124 -0.007874,
        0.038263 -0.023488 -0.007874,
        0.034591 -0.023900 -0.007874,
        0.041132 -0.022431 -0.007874,
        0.043548 -0.020803 -0.007874,
        0.045396 -0.018854 -0.007874,
        0.029365 -0.023320 -0.007874,
        0.047255 -0.001198 -0.007874,
        0.048305 -0.005412 -0.007874,
        0.045834 0.008359 -0.007874,
        0.049389 0.004941 -0.007874,
        0.051696 0.001260 -0.007874,
        0.047154 -0.024382 -0.007874,
        0.050111 -0.021269 -0.007874,
        0.057135 -0.023419 -0.007874,
        0.052208 -0.017525 -0.007874,
        0.072019 -0.023419 -0.007874,
        0.053393 -0.013358 -0.007874,
        0.053774 -0.008798 -0.007874,
        0.053207 -0.003201 -0.007874,
        0.042094 0.010512 -0.007874,
        0.037706 0.011787 -0.007874,
        0.033751 0.012110 -0.007874,
        0.029038 0.011784 -0.007874,
        0.024486 0.010549 -0.007874,
        0.024486 0.005268 -0.007874,
        0.028921 0.007167 -0.007874,
        0.033706 0.007789 -0.007874,
        0.034243 -0.028202 -0.007874,
        0.035319 -0.028221 -0.007874,
        -0.066737 0.011630 -0.007874,
        -0.066737 0.011630 0.000000,
        -0.082101 -0.027741 0.000000,
        -0.076339 -0.027741 0.000000,
        -0.072356 -0.016698 0.000000,
        -0.056092 -0.016698 0.000000,
        -0.052333 -0.027741 0.000000,
        -0.046572 -0.027741 0.000000,
        -0.061456 0.011630 0.000000,
        -0.057420 -0.012377 0.000000,
        -0.070585 -0.012377 0.000000,
        -0.063294 0.004068 0.000000,
        -0.063672 0.005433 0.000000,
        -0.063924 0.006828 0.000000,
        -0.064052 0.006828 0.000000,
        -0.064308 0.005437 0.000000,
        -0.064659 0.004068 0.000000,
        -0.057420 -0.012377 -0.007874,
        -0.070585 -0.012377 -0.007874,
        -0.063294 0.004068 -0.007874,
        -0.063672 0.005433 -0.007874,
        -0.063924 0.006828 -0.007874,
        -0.064052 0.006828 -0.007874,
        -0.064308 0.005437 -0.007874,
        -0.064659 0.004068 -0.007874,
        -0.022708 -0.027741 0.000000,
        -0.012003 -0.027741 0.000000,
        -0.012003 0.011630 0.000000,
        -0.023113 0.011630 0.000000,
        -0.043691 -0.007560 0.000000,
        -0.043405 -0.003856 -0.000000,
        -0.042348 0.000023 -0.000000,
        -0.040518 0.003409 -0.000000,
        -0.037734 0.006496 0.000000,
        -0.037693 0.006532 0.000000,
        -0.033407 0.009404 -0.000000,
        -0.028801 0.011022 -0.000000,
        -0.027580 -0.027315 0.000000,
        -0.032116 -0.025963 -0.000000,
        -0.036227 -0.023574 0.000000,
        -0.039467 -0.020472 -0.000000,
        -0.041725 -0.016950 -0.000000,
        -0.043139 -0.012829 0.000000,
        -0.035789 0.001787 0.000000,
        -0.033876 0.003818 0.000000,
        -0.031000 0.005676 0.000000,
        -0.027751 0.006813 0.000000,
        -0.023091 0.007308 0.000000,
        -0.017284 0.007308 0.000000,
        -0.017284 -0.023419 0.000000,
        -0.022873 -0.023419 0.000000,
        -0.027027 -0.023033 0.000000,
        -0.030340 -0.021999 0.000000,
        -0.033025 -0.020404 0.000000,
        -0.035233 -0.018223 0.000000,
        -0.036894 -0.015509 0.000000,
        -0.038048 -0.011808 0.000000,
        -0.038410 -0.007673 0.000000,
        -0.038075 -0.003755 0.000000,
        -0.037156 -0.000641 0.000000,
        -0.023091 0.007308 -0.007874,
        -0.017284 0.007308 -0.007874,
        -0.027751 0.006813 -0.007874,
        -0.031000 0.005676 -0.007874,
        -0.033876 0.003818 -0.007874,
        -0.035789 0.001787 -0.007874,
        -0.037156 -0.000641 -0.007874,
        -0.038075 -0.003755 -0.007874,
        -0.038410 -0.007673 -0.007874,
        -0.038048 -0.011808 -0.007874,
        -0.036894 -0.015509 -0.007874,
        -0.035233 -0.018223 -0.007874,
        -0.033025 -0.020404 -0.007874,
        -0.030340 -0.021999 -0.007874,
        -0.027027 -0.023033 -0.007874,
        -0.022873 -0.023419 -0.007874,
        -0.017284 -0.023419 -0.007874,
        -0.004321 -0.023419 0.000000,
        -0.004321 -0.027741 0.000000,
        0.016804 -0.027741 0.000000,
        0.016804 0.011630 0.000000,
        -0.003361 0.011630 0.000000,
        -0.003361 0.007308 0.000000,
        0.011523 0.007308 0.000000,
        0.011523 -0.005655 0.000000,
        -0.002401 -0.005655 0.000000,
        -0.002401 -0.009976 0.000000,
        0.011523 -0.009976 0.000000,
        0.011523 -0.023419 0.000000,
        0.024486 -0.021379 0.000000,
        0.024486 -0.025700 0.000000,
        0.028683 -0.027423 0.000000,
        0.035319 -0.028221 0.000000,
        0.034243 -0.028202 0.000000,
        0.040171 -0.027718 -0.000000,
        0.043987 -0.026404 -0.000000,
        0.047154 -0.024382 0.000000,
        0.050111 -0.021269 -0.000000,
        0.052208 -0.017525 -0.000000,
        0.053393 -0.013358 0.000000,
        0.053774 -0.008798 0.000000,
        0.033751 0.012110 0.000000,
        0.037706 0.011787 0.000000,
        0.042094 0.010512 -0.000000,
        0.045834 0.008359 -0.000000,
        0.049389 0.004941 -0.000000,
        0.051696 0.001260 -0.000000,
        0.053207 -0.003201 -0.000000,
        0.024486 0.010549 -0.000000,
        0.029038 0.011784 0.000000,
        0.024486 0.005268 0.000000,
        0.033706 0.007789 0.000000,
        0.028921 0.007167 0.000000,
        0.048493 -0.008476 0.000000,
        0.048305 -0.005412 -0.000000,
        0.047255 -0.001198 -0.000000,
        0.045632 0.001842 -0.000000,
        0.043255 0.004467 0.000000,
        0.040530 0.006290 0.000000,
        0.037583 0.007353 -0.000000,
        0.034591 -0.023900 0.000000,
        0.038263 -0.023488 -0.000000,
        0.041132 -0.022431 0.000000,
        0.043548 -0.020803 0.000000,
        0.045396 -0.018854 -0.000000,
        0.047024 -0.016124 0.000000,
        0.048094 -0.012738 -0.000000,
        0.025192 -0.021770 -0.000000,
        0.029365 -0.023320 0.000000,
        0.057135 -0.023419 0.000000,
        0.057135 -0.027741 0.000000,
        0.077300 -0.027741 0.000000,
        0.077300 0.011630 0.000000,
        0.072019 0.011630 0.000000,
        0.072019 -0.023419 0.000000,
      ]
    }
    coordIndex [
      86, 87, 85, -1,
      85, 87, 2, -1,
      87, 88, 2, -1,
      2, 88, 3, -1,
      88, 89, 3, -1,
      3, 89, 8, -1,
      89, 90, 8, -1,
      8, 90, 9, -1,
      90, 91, 9, -1,
      9, 91, 0, -1,
      91, 92, 0, -1,
      0, 92, 1, -1,
      92, 93, 1, -1,
      1, 93, 15, -1,
      93, 86, 15, -1,
      15, 86, 85, -1,
      94, 90, 95, -1,
      95, 90, 89, -1,
      96, 93, 94, -1,
      94, 93, 92, -1,
      94, 92, 90, -1,
      90, 92, 91, -1,
      96, 97, 93, -1,
      93, 97, 98, -1,
      93, 98, 86, -1,
      86, 98, 99, -1,
      86, 99, 100, -1,
      100, 101, 86, -1,
      86, 101, 95, -1,
      86, 95, 87, -1,
      87, 95, 89, -1,
      87, 89, 88, -1,
      94, 95, 102, -1,
      102, 95, 103, -1,
      96, 94, 104, -1,
      104, 94, 102, -1,
      96, 104, 105, -1,
      96, 105, 97, -1,
      97, 105, 106, -1,
      97, 106, 98, -1,
      99, 98, 107, -1,
      107, 98, 106, -1,
      99, 107, 108, -1,
      99, 108, 100, -1,
      100, 108, 109, -1,
      100, 109, 101, -1,
      95, 101, 103, -1,
      103, 101, 109, -1,
      110, 111, 20, -1,
      20, 111, 21, -1,
      111, 112, 21, -1,
      21, 112, 10, -1,
      112, 113, 10, -1,
      10, 113, 11, -1,
      114, 23, 22, -1,
      114, 22, 115, -1,
      115, 22, 18, -1,
      115, 18, 116, -1,
      116, 18, 17, -1,
      116, 17, 117, -1,
      117, 17, 16, -1,
      117, 16, 118, -1,
      118, 16, 14, -1,
      118, 14, 119, -1,
      119, 14, 13, -1,
      119, 13, 120, -1,
      120, 13, 12, -1,
      120, 12, 121, -1,
      121, 12, 11, -1,
      121, 11, 113, -1,
      110, 20, 19, -1,
      110, 19, 122, -1,
      122, 19, 7, -1,
      122, 7, 123, -1,
      123, 7, 6, -1,
      123, 6, 124, -1,
      124, 6, 5, -1,
      124, 5, 125, -1,
      125, 5, 4, -1,
      125, 4, 126, -1,
      126, 4, 24, -1,
      126, 24, 127, -1,
      127, 24, 23, -1,
      127, 23, 114, -1,
      116, 117, 128, -1,
      128, 117, 118, -1,
      128, 118, 129, -1,
      129, 118, 119, -1,
      129, 119, 130, -1,
      130, 119, 120, -1,
      130, 120, 131, -1,
      131, 120, 121, -1,
      131, 121, 132, -1,
      132, 121, 113, -1,
      132, 113, 133, -1,
      133, 113, 112, -1,
      133, 112, 134, -1,
      134, 112, 111, -1,
      134, 111, 135, -1,
      135, 111, 110, -1,
      135, 110, 136, -1,
      136, 110, 122, -1,
      136, 122, 137, -1,
      137, 122, 123, -1,
      137, 123, 138, -1,
      138, 123, 124, -1,
      138, 124, 139, -1,
      139, 124, 125, -1,
      139, 125, 140, -1,
      140, 125, 126, -1,
      140, 126, 141, -1,
      141, 126, 127, -1,
      141, 127, 142, -1,
      142, 127, 114, -1,
      142, 114, 143, -1,
      143, 114, 115, -1,
      143, 115, 144, -1,
      144, 115, 116, -1,
      144, 116, 128, -1,
      132, 133, 145, -1,
      145, 133, 146, -1,
      132, 145, 147, -1,
      132, 147, 131, -1,
      131, 147, 148, -1,
      131, 148, 130, -1,
      130, 148, 149, -1,
      130, 149, 129, -1,
      129, 149, 150, -1,
      129, 150, 128, -1,
      128, 150, 151, -1,
      128, 151, 144, -1,
      144, 151, 152, -1,
      144, 152, 143, -1,
      143, 152, 153, -1,
      143, 153, 142, -1,
      142, 153, 154, -1,
      142, 154, 141, -1,
      141, 154, 155, -1,
      141, 155, 140, -1,
      140, 155, 156, -1,
      140, 156, 139, -1,
      139, 156, 157, -1,
      139, 157, 138, -1,
      138, 157, 158, -1,
      138, 158, 137, -1,
      137, 158, 159, -1,
      137, 159, 136, -1,
      136, 159, 160, -1,
      136, 160, 135, -1,
      134, 135, 161, -1,
      161, 135, 160, -1,
      133, 134, 146, -1,
      146, 134, 161, -1,
      162, 163, 25, -1,
      25, 163, 26, -1,
      163, 164, 26, -1,
      26, 164, 27, -1,
      164, 165, 27, -1,
      27, 165, 33, -1,
      165, 166, 33, -1,
      33, 166, 47, -1,
      166, 167, 47, -1,
      47, 167, 28, -1,
      167, 168, 28, -1,
      28, 168, 29, -1,
      168, 169, 29, -1,
      29, 169, 30, -1,
      169, 170, 30, -1,
      30, 170, 39, -1,
      170, 171, 39, -1,
      39, 171, 38, -1,
      171, 172, 38, -1,
      38, 172, 36, -1,
      172, 173, 36, -1,
      36, 173, 37, -1,
      173, 162, 37, -1,
      37, 162, 25, -1,
      164, 163, 162, -1,
      162, 173, 164, -1,
      164, 173, 172, -1,
      164, 172, 165, -1,
      167, 166, 168, -1,
      168, 166, 165, -1,
      168, 165, 169, -1,
      169, 165, 172, -1,
      169, 172, 170, -1,
      170, 172, 171, -1,
      174, 175, 32, -1,
      32, 175, 31, -1,
      31, 175, 176, -1,
      177, 84, 83, -1,
      177, 83, 178, -1,
      178, 83, 35, -1,
      178, 35, 176, -1,
      176, 35, 34, -1,
      176, 34, 31, -1,
      84, 177, 43, -1,
      43, 177, 179, -1,
      43, 179, 42, -1,
      42, 179, 180, -1,
      42, 180, 40, -1,
      40, 180, 181, -1,
      40, 181, 67, -1,
      67, 181, 182, -1,
      67, 182, 68, -1,
      68, 182, 183, -1,
      68, 183, 70, -1,
      70, 183, 184, -1,
      70, 184, 72, -1,
      72, 184, 185, -1,
      72, 185, 73, -1,
      186, 77, 76, -1,
      186, 76, 187, -1,
      187, 76, 75, -1,
      187, 75, 188, -1,
      188, 75, 64, -1,
      188, 64, 189, -1,
      189, 64, 65, -1,
      189, 65, 190, -1,
      190, 65, 66, -1,
      190, 66, 191, -1,
      191, 66, 74, -1,
      191, 74, 192, -1,
      192, 74, 73, -1,
      192, 73, 185, -1,
      193, 79, 78, -1,
      193, 78, 194, -1,
      194, 78, 77, -1,
      194, 77, 186, -1,
      193, 195, 79, -1,
      79, 195, 80, -1,
      196, 82, 81, -1,
      196, 81, 197, -1,
      197, 81, 80, -1,
      197, 80, 195, -1,
      198, 53, 63, -1,
      198, 63, 199, -1,
      199, 63, 62, -1,
      199, 62, 200, -1,
      200, 62, 52, -1,
      200, 52, 201, -1,
      201, 52, 51, -1,
      201, 51, 202, -1,
      202, 51, 49, -1,
      202, 49, 203, -1,
      203, 49, 48, -1,
      203, 48, 204, -1,
      204, 48, 82, -1,
      204, 82, 196, -1,
      205, 57, 56, -1,
      205, 56, 206, -1,
      206, 56, 58, -1,
      206, 58, 207, -1,
      207, 58, 59, -1,
      207, 59, 208, -1,
      208, 59, 60, -1,
      208, 60, 209, -1,
      209, 60, 55, -1,
      209, 55, 210, -1,
      210, 55, 54, -1,
      210, 54, 211, -1,
      211, 54, 53, -1,
      211, 53, 198, -1,
      174, 32, 50, -1,
      174, 50, 212, -1,
      212, 50, 61, -1,
      212, 61, 213, -1,
      213, 61, 57, -1,
      213, 57, 205, -1,
      206, 177, 205, -1,
      205, 177, 178, -1,
      205, 178, 213, -1,
      213, 178, 176, -1,
      213, 176, 212, -1,
      212, 176, 175, -1,
      212, 175, 174, -1,
      195, 193, 197, -1,
      197, 193, 194, -1,
      197, 194, 196, -1,
      196, 194, 186, -1,
      196, 186, 204, -1,
      204, 186, 187, -1,
      204, 187, 203, -1,
      203, 187, 188, -1,
      203, 188, 202, -1,
      202, 188, 189, -1,
      202, 189, 201, -1,
      201, 189, 190, -1,
      201, 190, 200, -1,
      200, 190, 191, -1,
      200, 191, 199, -1,
      199, 191, 192, -1,
      199, 192, 198, -1,
      198, 192, 185, -1,
      198, 185, 211, -1,
      211, 185, 184, -1,
      211, 184, 210, -1,
      210, 184, 183, -1,
      210, 183, 209, -1,
      209, 183, 182, -1,
      209, 182, 208, -1,
      208, 182, 181, -1,
      208, 181, 207, -1,
      207, 181, 180, -1,
      207, 180, 206, -1,
      206, 180, 179, -1,
      206, 179, 177, -1,
      214, 215, 69, -1,
      69, 215, 41, -1,
      215, 216, 41, -1,
      41, 216, 44, -1,
      216, 217, 44, -1,
      44, 217, 45, -1,
      217, 218, 45, -1,
      45, 218, 46, -1,
      218, 219, 46, -1,
      46, 219, 71, -1,
      219, 214, 71, -1,
      71, 214, 69, -1,
      218, 217, 219, -1,
      219, 217, 216, -1,
      219, 216, 214, -1,
      214, 216, 215, -1,
    ]
  }
}

Shape {
  appearance Appearance {
    material Material {
      diffuseColor 0.6667 0.6667 0.6667
      specularColor 0.4667 0.4667 0.4667
      ambientIntensity 0.2
      transparency 0.0000
      shininess 0.5
    }
  }
  geometry IndexedFaceSet {
    ccw TRUE
    solid FALSE
    coord DEF co Coordinate {
      point [
        -0.057420 -0.012377 -0.007874,
        -0.070585 -0.012377 -0.007874,
        -0.063294 0.004068 -0.007874,
        -0.063672 0.005433 -0.007874,
        -0.063924 0.006828 -0.007874,
        -0.064052 0.006828 -0.007874,
        -0.064308 0.005437 -0.007874,
        -0.064659 0.004068 -0.007874,
        -0.023091 0.007308 -0.007874,
        -0.017284 0.007308 -0.007874,
        -0.027751 0.006813 -0.007874,
        -0.031000 0.005676 -0.007874,
        -0.033876 0.003818 -0.007874,
        -0.035789 0.001787 -0.007874,
        -0.037156 -0.000641 -0.007874,
        -0.038075 -0.003755 -0.007874,
        -0.038410 -0.007673 -0.007874,
        -0.038048 -0.011808 -0.007874,
        -0.036894 -0.015509 -0.007874,
        -0.035233 -0.018223 -0.007874,
        -0.033025 -0.020404 -0.007874,
        -0.030340 -0.021999 -0.007874,
        -0.027027 -0.023033 -0.007874,
        -0.022873 -0.023419 -0.007874,
        -0.017284 -0.023419 -0.007874,
      ]
    }
    coordIndex [
      0, 1, 2, -1,
      2, 1, 7, -1,
      2, 7, 3, -1,
      3, 7, 6, -1,
      3, 6, 4, -1,
      4, 6, 5, -1,
      9, 24, 8, -1,
      8, 24, 23, -1,
      8, 23, 22, -1,
      16, 15, 8, -1,
      8, 15, 14, -1,
      8, 14, 10, -1,
      22, 21, 8, -1,
      8, 21, 20, -1,
      8, 20, 19, -1,
      19, 18, 8, -1,
      8, 18, 17, -1,
      8, 17, 16, -1,
      13, 12, 14, -1,
      14, 12, 11, -1,
      14, 11, 10, -1,
    ]
  }
}
